<svg version="1.1" viewBox="0.0 0.0 960.0 720.0" fill="none" stroke="none" stroke-linecap="square" stroke-miterlimit="10" xmlns:xlink="http://www.w3.org/1999/xlink" xmlns="http://www.w3.org/2000/svg"><clipPath id="p.0"><path d="m0 0l960.0 0l0 720.0l-960.0 0l0 -720.0z" clip-rule="nonzero"/></clipPath><g clip-path="url(#p.0)"><path fill="#000000" fill-opacity="0.0" d="m0 0l960.0 0l0 720.0l-960.0 0z" fill-rule="evenodd"/><path fill="#000000" fill-opacity="0.0" d="m226.62993 150.91339l0 0c0 -11.524063 9.342087 -20.86615 20.866135 -20.86615l0 0c5.5340424 0 10.841431 2.1983948 14.754578 6.111557c3.9131775 3.9131622 6.1115723 9.220535 6.1115723 14.754593l0 0c0 11.524048 -9.342102 20.866135 -20.86615 20.866135l0 0c-11.524048 0 -20.866135 -9.342087 -20.866135 -20.866135zm5.707306 0l0 0c0 8.371994 6.7868347 15.158829 15.158829 15.158829c8.371994 0 15.158844 -6.7868347 15.158844 -15.158829c0 -8.371994 -6.78685 -15.158844 -15.158844 -15.158844l0 0c-8.371994 0 -15.158829 6.78685 -15.158829 15.158844z" fill-rule="evenodd"/><path stroke="#000000" stroke-width="1.0" stroke-linejoin="round" stroke-linecap="butt" d="m226.62993 150.91339l0 0c0 -11.524063 9.342087 -20.86615 20.866135 -20.86615l0 0c5.5340424 0 10.841431 2.1983948 14.754578 6.111557c3.9131775 3.9131622 6.1115723 9.220535 6.1115723 14.754593l0 0c0 11.524048 -9.342102 20.866135 -20.86615 20.866135l0 0c-11.524048 0 -20.866135 -9.342087 -20.866135 -20.866135zm5.707306 0l0 0c0 8.371994 6.7868347 15.158829 15.158829 15.158829c8.371994 0 15.158844 -6.7868347 15.158844 -15.158829c0 -8.371994 -6.78685 -15.158844 -15.158844 -15.158844l0 0c-8.371994 0 -15.158829 6.78685 -15.158829 15.158844z" fill-rule="evenodd"/><path fill="#000000" fill-opacity="0.0" d="m691.6378 150.91339l0 0c0 -11.524063 9.342041 -20.86615 20.86615 -20.86615l0 0c5.5339966 0 10.84137 2.1983948 14.754578 6.111557c3.913147 3.9131622 6.111511 9.220535 6.111511 14.754593l0 0c0 11.524048 -9.342041 20.866135 -20.866089 20.866135l0 0c-11.524109 0 -20.86615 -9.342087 -20.86615 -20.866135zm5.7072754 0l0 0c0 8.371994 6.786865 15.158829 15.1588745 15.158829c8.371948 0 15.158813 -6.7868347 15.158813 -15.158829c0 -8.371994 -6.786865 -15.158844 -15.158813 -15.158844l0 0c-8.372009 0 -15.1588745 6.78685 -15.1588745 15.158844z" fill-rule="evenodd"/><path stroke="#000000" stroke-width="1.0" stroke-linejoin="round" stroke-linecap="butt" d="m691.6378 150.91339l0 0c0 -11.524063 9.342041 -20.86615 20.86615 -20.86615l0 0c5.5339966 0 10.84137 2.1983948 14.754578 6.111557c3.913147 3.9131622 6.111511 9.220535 6.111511 14.754593l0 0c0 11.524048 -9.342041 20.866135 -20.866089 20.866135l0 0c-11.524109 0 -20.86615 -9.342087 -20.86615 -20.866135zm5.7072754 0l0 0c0 8.371994 6.786865 15.158829 15.1588745 15.158829c8.371948 0 15.158813 -6.7868347 15.158813 -15.158829c0 -8.371994 -6.786865 -15.158844 -15.158813 -15.158844l0 0c-8.372009 0 -15.1588745 6.78685 -15.1588745 15.158844z" fill-rule="evenodd"/><path fill="#000000" fill-opacity="0.0" d="m459.13385 553.0866l0 0c0 -11.524048 9.342102 -20.86615 20.86615 -20.86615l0 0c5.5340576 0 10.841431 2.1984253 14.754578 6.1115723c3.9131775 3.913147 6.1115723 9.22052 6.1115723 14.754578l0 0c0 11.524048 -9.342102 20.86615 -20.86615 20.86615l0 0c-11.524048 0 -20.86615 -9.342102 -20.86615 -20.86615zm5.707306 0l0 0c0 8.372009 6.786865 15.158813 15.158844 15.158813c8.371979 0 15.158844 -6.786804 15.158844 -15.158813c0 -8.372009 -6.786865 -15.158813 -15.158844 -15.158813l0 0c-8.371979 0 -15.158844 6.786804 -15.158844 15.158813z" fill-rule="evenodd"/><path stroke="#000000" stroke-width="1.0" stroke-linejoin="round" stroke-linecap="butt" d="m459.13385 553.0866l0 0c0 -11.524048 9.342102 -20.86615 20.86615 -20.86615l0 0c5.5340576 0 10.841431 2.1984253 14.754578 6.1115723c3.9131775 3.913147 6.1115723 9.22052 6.1115723 14.754578l0 0c0 11.524048 -9.342102 20.86615 -20.86615 20.86615l0 0c-11.524048 0 -20.86615 -9.342102 -20.86615 -20.86615zm5.707306 0l0 0c0 8.372009 6.786865 15.158813 15.158844 15.158813c8.371979 0 15.158844 -6.786804 15.158844 -15.158813c0 -8.372009 -6.786865 -15.158813 -15.158844 -15.158813l0 0c-8.371979 0 -15.158844 6.786804 -15.158844 15.158813z" fill-rule="evenodd"/><path fill="#000000" fill-opacity="0.0" d="m459.13385 331.54593l0 0c0 -11.524048 9.342102 -20.86615 20.86615 -20.86615l0 0c5.5340576 0 10.841431 2.1983948 14.754578 6.1115723c3.9131775 3.913147 6.1115723 9.220551 6.1115723 14.754578l0 0c0 11.524048 -9.342102 20.86615 -20.86615 20.86615l0 0c-11.524048 0 -20.86615 -9.342102 -20.86615 -20.86615zm5.707306 0l0 0c0 8.372009 6.786865 15.158844 15.158844 15.158844c8.371979 0 15.158844 -6.7868347 15.158844 -15.158844c0 -8.371979 -6.786865 -15.158844 -15.158844 -15.158844l0 0c-8.371979 0 -15.158844 6.786865 -15.158844 15.158844z" fill-rule="evenodd"/><path stroke="#000000" stroke-width="1.0" stroke-linejoin="round" stroke-linecap="butt" d="m459.13385 331.54593l0 0c0 -11.524048 9.342102 -20.86615 20.86615 -20.86615l0 0c5.5340576 0 10.841431 2.1983948 14.754578 6.1115723c3.9131775 3.913147 6.1115723 9.220551 6.1115723 14.754578l0 0c0 11.524048 -9.342102 20.86615 -20.86615 20.86615l0 0c-11.524048 0 -20.86615 -9.342102 -20.86615 -20.86615zm5.707306 0l0 0c0 8.372009 6.786865 15.158844 15.158844 15.158844c8.371979 0 15.158844 -6.7868347 15.158844 -15.158844c0 -8.371979 -6.786865 -15.158844 -15.158844 -15.158844l0 0c-8.371979 0 -15.158844 6.786865 -15.158844 15.158844z" fill-rule="evenodd"/><path fill="#000000" fill-opacity="0.0" d="m697.74805 165.65617l-196.8819 165.88976" fill-rule="evenodd"/><path stroke="#000000" stroke-width="1.0" stroke-linejoin="round" stroke-linecap="butt" d="m695.1272 167.86441l-191.64023 161.47327" fill-rule="evenodd"/><path fill="#000000" stroke="#000000" stroke-width="1.0" stroke-linecap="butt" d="m695.12726 167.86441l-0.13537598 1.5846252l1.6381836 -2.850891l-3.0874634 1.1308899z" fill-rule="evenodd"/><path fill="#000000" stroke="#000000" stroke-width="1.0" stroke-linecap="butt" d="m503.48694 329.33768l0.13537598 -1.5846252l-1.6382141 2.850891l3.0874634 -1.1308899z" fill-rule="evenodd"/><path fill="#000000" fill-opacity="0.0" d="m459.13385 331.54593l-196.88187 -165.88976" fill-rule="evenodd"/><path stroke="#000000" stroke-width="1.0" stroke-linejoin="round" stroke-linecap="butt" d="m456.51303 329.33768l-191.64026 -161.47327" fill-rule="evenodd"/><path fill="#000000" stroke="#000000" stroke-width="1.0" stroke-linecap="butt" d="m456.51306 329.33768l-1.5846252 0.13537598l3.0874634 1.1308899l-1.6382141 -2.850891z" fill-rule="evenodd"/><path fill="#000000" stroke="#000000" stroke-width="1.0" stroke-linecap="butt" d="m264.87277 167.86441l1.5846252 -0.13537598l-3.0874634 -1.1308899l1.6382141 2.850891z" fill-rule="evenodd"/><path fill="#000000" fill-opacity="0.0" d="m480.0 352.41208l0 179.811" fill-rule="evenodd"/><path stroke="#000000" stroke-width="1.0" stroke-linejoin="round" stroke-linecap="butt" d="m480.0 355.83914l0 172.95688" fill-rule="evenodd"/><path fill="#000000" stroke="#000000" stroke-width="1.0" stroke-linecap="butt" d="m480.0 355.83917l1.1245728 1.1245728l-1.1245728 -3.0897827l-1.1245728 3.0897827z" fill-rule="evenodd"/><path fill="#000000" stroke="#000000" stroke-width="1.0" stroke-linecap="butt" d="m480.0 528.796l-1.1245728 -1.1245728l1.1245728 3.0897217l1.1245728 -3.0897217z" fill-rule="evenodd"/><path fill="#000000" fill-opacity="0.0" d="m500.86615 553.0866l211.65356 -381.29132" fill-rule="evenodd"/><path stroke="#000000" stroke-width="1.0" stroke-linejoin="round" stroke-linecap="butt" stroke-dasharray="8.0,3.0" d="m502.7056 549.77295l208.15079 -374.98126" fill-rule="evenodd"/><path fill="#000000" stroke="#000000" stroke-width="1.0" stroke-linecap="butt" d="m504.14383 550.5713l-1.5967407 2.8765259l-2.8765564 -1.5967407l1.5967712 -2.8765259l2.8765259 1.5967407z" fill-rule="nonzero"/><path fill="#000000" stroke="#000000" stroke-width="1.0" stroke-linecap="butt" d="m710.8564 174.79167l0.43743896 1.5290527l0.5163574 -3.2472687l-2.4828491 2.1556702z" fill-rule="evenodd"/><path fill="#000000" fill-opacity="0.0" d="m459.13385 553.0866l-211.65353 -381.29132" fill-rule="evenodd"/><path stroke="#000000" stroke-width="1.0" stroke-linejoin="round" stroke-linecap="butt" stroke-dasharray="8.0,3.0" d="m457.2944 549.77295l-208.1508 -374.98126" fill-rule="evenodd"/><path fill="#000000" stroke="#000000" stroke-width="1.0" stroke-linecap="butt" d="m458.7327 548.97455l1.5967712 2.8765259l-2.8765564 1.5967407l-1.5967407 -2.8765259l2.8765259 -1.5967407z" fill-rule="nonzero"/><path fill="#000000" stroke="#000000" stroke-width="1.0" stroke-linecap="butt" d="m249.1436 174.79167l1.5290527 0.43745422l-2.4828186 -2.1556702l0.51631165 3.2472687z" fill-rule="evenodd"/><path fill="#000000" fill-opacity="0.0" d="m268.3622 150.91339l423.2756 0" fill-rule="evenodd"/><path stroke="#000000" stroke-width="3.0" stroke-linejoin="round" stroke-linecap="butt" d="m286.3622 150.91339l387.2756 0" fill-rule="evenodd"/><path fill="#000000" stroke="#000000" stroke-width="3.0" stroke-linecap="butt" d="m286.3622 145.95819l-13.614288 4.9552l13.614288 4.955185z" fill-rule="evenodd"/><path fill="#000000" stroke="#000000" stroke-width="3.0" stroke-linecap="butt" d="m673.6378 155.86858l13.614258 -4.955185l-13.614258 -4.9552z" fill-rule="evenodd"/><path fill="#000000" fill-opacity="0.0" d="m480.0 310.67978l0 -51.338562" fill-rule="evenodd"/><path stroke="#000000" stroke-width="1.0" stroke-linejoin="round" stroke-linecap="butt" d="m480.0 307.25272l0 -47.9115" fill-rule="evenodd"/><path fill="#000000" stroke="#000000" stroke-width="1.0" stroke-linecap="butt" d="m480.0 307.25272l-1.1245728 -1.1246033l1.1245728 3.0897827l1.1245728 -3.0897827z" fill-rule="evenodd"/><path fill="#000000" fill-opacity="0.0" d="m727.25854 136.1588l45.322815 -45.322838" fill-rule="evenodd"/><path stroke="#000000" stroke-width="2.0" stroke-linejoin="round" stroke-linecap="butt" stroke-dasharray="2.0,6.0" d="m735.74384 127.673515l36.837524 -36.837555" fill-rule="evenodd"/><path stroke="#000000" stroke-width="2.0" stroke-linecap="butt" d="m733.4079 125.33761l-4.081909 8.753746l8.753723 -4.0819397z" fill-rule="evenodd"/><path fill="#000000" fill-opacity="0.0" d="m232.74147 136.1588l-46.519684 -46.51969" fill-rule="evenodd"/><path stroke="#000000" stroke-width="2.0" stroke-linejoin="round" stroke-linecap="butt" stroke-dasharray="2.0,6.0" d="m224.2562 127.673515l-38.03441 -38.03441" fill-rule="evenodd"/><path stroke="#000000" stroke-width="2.0" stroke-linecap="butt" d="m221.92029 130.00941l8.753738 4.0819397l-4.0819397 -8.753746z" fill-rule="evenodd"/><path fill="#000000" fill-opacity="0.0" d="m480.0 573.95276l0 65.102356" fill-rule="evenodd"/><path stroke="#000000" stroke-width="3.0" stroke-linejoin="round" stroke-linecap="butt" d="m480.0 591.95276l0 47.102356" fill-rule="evenodd"/><path fill="#000000" stroke="#000000" stroke-width="3.0" stroke-linecap="butt" d="m484.9552 591.95276l-4.9552 -13.614319l-4.9552 13.614319z" fill-rule="evenodd"/><path fill="#000000" fill-opacity="0.0" d="m93.031494 470.71652l40.157486 0" fill-rule="evenodd"/><path stroke="#000000" stroke-width="1.0" stroke-linejoin="round" stroke-linecap="butt" d="m93.031494 470.71652l36.730392 0" fill-rule="evenodd"/><path fill="#000000" stroke="#000000" stroke-width="1.0" stroke-linecap="butt" d="m129.76189 470.71652l-1.1245728 1.1246033l3.0897675 -1.1246033l-3.0897675 -1.1245728z" fill-rule="evenodd"/><path fill="#000000" fill-opacity="0.0" d="m93.031494 506.71652l40.157486 0" fill-rule="evenodd"/><path stroke="#000000" stroke-width="1.0" stroke-linejoin="round" stroke-linecap="butt" stroke-dasharray="8.0,3.0" d="m93.031494 506.71652l36.730392 0" fill-rule="evenodd"/><path fill="#000000" stroke="#000000" stroke-width="1.0" stroke-linecap="butt" d="m129.76189 506.71652l-1.1245728 1.1246033l3.0897675 -1.1246033l-3.0897675 -1.1245728z" fill-rule="evenodd"/><path fill="#000000" fill-opacity="0.0" d="m93.031494 542.71655l40.157486 0" fill-rule="evenodd"/><path stroke="#000000" stroke-width="1.0" stroke-linejoin="round" stroke-linecap="butt" stroke-dasharray="8.0,3.0" d="m93.031494 542.71655l36.367493 0" fill-rule="evenodd"/><path fill="#000000" stroke="#000000" stroke-width="1.0" stroke-linecap="butt" d="m129.39897 541.07153l3.2900085 0l0 3.289978l-3.2900085 0l0 -3.289978z" fill-rule="nonzero"/><path fill="#000000" fill-opacity="0.0" d="m93.031494 578.71655l40.157486 0" fill-rule="evenodd"/><path stroke="#000000" stroke-width="2.0" stroke-linejoin="round" stroke-linecap="butt" stroke-dasharray="2.0,6.0" d="m93.031494 578.71655l28.157486 0" fill-rule="evenodd"/><path stroke="#000000" stroke-width="2.0" stroke-linecap="butt" d="m121.18898 582.02l9.076187 -3.3034668l-9.076187 -3.3034668z" fill-rule="evenodd"/><path fill="#000000" fill-opacity="0.0" d="m93.031494 614.71655l40.157486 0" fill-rule="evenodd"/><path stroke="#000000" stroke-width="3.0" stroke-linejoin="round" stroke-linecap="butt" d="m93.031494 614.71655l22.157486 0" fill-rule="evenodd"/><path fill="#000000" stroke="#000000" stroke-width="3.0" stroke-linecap="butt" d="m115.18898 619.67175l13.614288 -4.9552l-13.614288 -4.9552z" fill-rule="evenodd"/><path fill="#000000" fill-opacity="0.0" d="m139.64174 457.07874l101.38582 0l0 27.275604l-101.38582 0z" fill-rule="evenodd"/><path fill="#000000" d="m156.57924 469.4828q0 0.625 -0.234375 1.25q-0.234375 0.609375 -0.734375 1.09375q-0.484375 0.484375 -1.25 0.78125q-0.765625 0.296875 -1.828125 0.296875l-1.265625 0l0 3.671875l-1.390625 0l0 -10.21875l2.875 0q0.765625 0 1.453125 0.171875q0.703125 0.171875 1.21875 0.546875q0.53125 0.375 0.84375 0.96875q0.3125 0.59375 0.3125 1.4375zm-1.4375 0.0625q0 -0.984375 -0.65625 -1.5q-0.640625 -0.53125 -1.796875 -0.53125l-1.421875 0l0 4.203125l1.296875 0q1.234375 0 1.90625 -0.53125q0.671875 -0.546875 0.671875 -1.640625zm10.375 3.046875q0 0.90625 -0.265625 1.671875q-0.25 0.765625 -0.734375 1.3125q-0.484375 0.53125 -1.1875 0.84375q-0.6875 0.296875 -1.5625 0.296875q-0.84375 0 -1.515625 -0.265625q-0.671875 -0.265625 -1.140625 -0.765625q-0.453125 -0.515625 -0.703125 -1.265625q-0.25 -0.75 -0.25 -1.71875q0 -0.921875 0.25 -1.671875q0.265625 -0.75 0.75 -1.296875q0.484375 -0.546875 1.171875 -0.84375q0.703125 -0.296875 1.59375 -0.296875q0.84375 0 1.5 0.265625q0.671875 0.25 1.140625 0.765625q0.46875 0.5 0.703125 1.25q0.25 0.75 0.25 1.71875zm-1.390625 0.0625q0 -0.734375 -0.15625 -1.265625q-0.15625 -0.546875 -0.453125 -0.90625q-0.296875 -0.375 -0.734375 -0.546875q-0.421875 -0.1875 -0.9375 -0.1875q-0.609375 0 -1.046875 0.234375q-0.4375 0.234375 -0.71875 0.640625q-0.265625 0.390625 -0.40625 0.921875q-0.125 0.53125 -0.125 1.109375q0 0.71875 0.15625 1.265625q0.171875 0.546875 0.46875 0.921875q0.296875 0.359375 0.71875 0.546875q0.421875 0.171875 0.953125 0.171875q0.609375 0 1.03125 -0.234375q0.4375 -0.234375 0.71875 -0.625q0.28125 -0.40625 0.40625 -0.9375q0.125 -0.53125 0.125 -1.109375zm9.578125 1.78125q0 0.40625 -0.140625 0.734375q-0.140625 0.328125 -0.390625 0.59375q-0.234375 0.25 -0.5625 0.4375q-0.3125 0.171875 -0.6875 0.296875q-0.359375 0.109375 -0.75 0.15625q-0.375 0.0625 -0.734375 0.0625q-0.796875 0 -1.46875 -0.078125q-0.671875 -0.0625 -1.3125 -0.21875l0 -1.25q0.6875 0.1875 1.359375 0.296875q0.6875 0.09375 1.359375 0.09375q0.984375 0 1.453125 -0.265625q0.46875 -0.265625 0.46875 -0.75q0 -0.21875 -0.078125 -0.375q-0.078125 -0.171875 -0.28125 -0.328125q-0.1875 -0.15625 -0.59375 -0.3125q-0.40625 -0.171875 -1.125 -0.375q-0.53125 -0.15625 -0.984375 -0.359375q-0.4375 -0.203125 -0.765625 -0.46875q-0.328125 -0.28125 -0.515625 -0.640625q-0.1875 -0.375 -0.1875 -0.875q0 -0.328125 0.140625 -0.71875q0.15625 -0.390625 0.515625 -0.71875q0.375 -0.34375 1.0 -0.5625q0.625 -0.21875 1.5625 -0.21875q0.46875 0 1.03125 0.046875q0.5625 0.046875 1.171875 0.171875l0 1.21875q-0.640625 -0.15625 -1.21875 -0.234375q-0.578125 -0.078125 -1.0 -0.078125q-0.5 0 -0.859375 0.078125q-0.34375 0.078125 -0.5625 0.21875q-0.203125 0.140625 -0.296875 0.328125q-0.09375 0.171875 -0.09375 0.390625q0 0.203125 0.078125 0.375q0.078125 0.171875 0.296875 0.34375q0.234375 0.15625 0.625 0.3125q0.40625 0.15625 1.046875 0.34375q0.6875 0.203125 1.15625 0.4375q0.484375 0.21875 0.78125 0.5q0.296875 0.265625 0.421875 0.609375q0.140625 0.34375 0.140625 0.78125zm5.25 -4.578125l-2.3125 0l0 -1.125l3.6875 0l0 6.703125l2.34375 0l0 1.140625l-6.296875 0l0 -1.140625l2.578125 0l0 -5.578125zm0.484375 -4.421875q0.21875 0 0.40625 0.09375q0.203125 0.078125 0.34375 0.234375q0.15625 0.140625 0.234375 0.328125q0.078125 0.1875 0.078125 0.421875q0 0.21875 -0.078125 0.421875q-0.078125 0.1875 -0.234375 0.34375q-0.140625 0.140625 -0.34375 0.21875q-0.1875 0.078125 -0.40625 0.078125q-0.234375 0 -0.4375 -0.078125q-0.1875 -0.078125 -0.328125 -0.21875q-0.140625 -0.15625 -0.234375 -0.34375q-0.078125 -0.203125 -0.078125 -0.421875q0 -0.234375 0.078125 -0.421875q0.09375 -0.1875 0.234375 -0.328125q0.140625 -0.15625 0.328125 -0.234375q0.203125 -0.09375 0.4375 -0.09375zm11.96875 11.03125q-0.46875 0.125 -0.96875 0.171875q-0.484375 0.046875 -0.984375 0.046875q-1.484375 0 -2.21875 -0.671875q-0.71875 -0.671875 -0.71875 -2.046875l0 -4.09375l-2.1875 0l0 -1.140625l2.1875 0l0 -2.15625l1.359375 -0.359375l0 2.515625l3.53125 0l0 1.140625l-3.53125 0l0 3.984375q0 0.84375 0.453125 1.265625q0.453125 0.40625 1.328125 0.40625q0.375 0 0.8125 -0.046875q0.453125 -0.0625 0.9375 -0.1875l0 1.171875zm5.140625 -6.609375l-2.3125 0l0 -1.125l3.6875 0l0 6.703125l2.34375 0l0 1.140625l-6.296875 0l0 -1.140625l2.578125 0l0 -5.578125zm0.484375 -4.421875q0.21875 0 0.40625 0.09375q0.203125 0.078125 0.34375 0.234375q0.15625 0.140625 0.234375 0.328125q0.078125 0.1875 0.078125 0.421875q0 0.21875 -0.078125 0.421875q-0.078125 0.1875 -0.234375 0.34375q-0.140625 0.140625 -0.34375 0.21875q-0.1875 0.078125 -0.40625 0.078125q-0.234375 0 -0.4375 -0.078125q-0.1875 -0.078125 -0.328125 -0.21875q-0.140625 -0.15625 -0.234375 -0.34375q-0.078125 -0.203125 -0.078125 -0.421875q0 -0.234375 0.078125 -0.421875q0.09375 -0.1875 0.234375 -0.328125q0.140625 -0.15625 0.328125 -0.234375q0.203125 -0.09375 0.4375 -0.09375zm4.90625 3.296875l1.546875 0l1.921875 5.1875l0.421875 1.265625l0.421875 -1.296875l1.90625 -5.15625l1.5 0l-3.078125 7.84375l-1.5625 0l-3.078125 -7.84375zm16.15625 3.5q0 0.296875 -0.015625 0.5q0 0.1875 -0.015625 0.359375l-5.5 0q0 1.203125 0.671875 1.84375q0.671875 0.640625 1.9375 0.640625q0.34375 0 0.6875 -0.015625q0.34375 -0.03125 0.65625 -0.078125q0.328125 -0.046875 0.609375 -0.109375q0.296875 -0.0625 0.546875 -0.125l0 1.109375q-0.546875 0.15625 -1.25 0.25q-0.703125 0.109375 -1.453125 0.109375q-1.0 0 -1.734375 -0.265625q-0.71875 -0.28125 -1.1875 -0.796875q-0.46875 -0.53125 -0.6875 -1.28125q-0.21875 -0.75 -0.21875 -1.703125q0 -0.828125 0.234375 -1.5625q0.234375 -0.75 0.6875 -1.296875q0.46875 -0.5625 1.125 -0.890625q0.671875 -0.328125 1.515625 -0.328125q0.8125 0 1.4375 0.265625q0.640625 0.25 1.078125 0.71875q0.4375 0.46875 0.65625 1.15625q0.21875 0.671875 0.21875 1.5zm-1.40625 -0.1875q0.015625 -0.53125 -0.109375 -0.953125q-0.125 -0.4375 -0.390625 -0.75q-0.25 -0.3125 -0.640625 -0.484375q-0.390625 -0.1875 -0.90625 -0.1875q-0.453125 0 -0.828125 0.171875q-0.359375 0.171875 -0.625 0.484375q-0.265625 0.3125 -0.4375 0.75q-0.15625 0.4375 -0.1875 0.96875l4.125 0z" fill-rule="nonzero"/><path fill="#000000" fill-opacity="0.0" d="m139.64174 493.07874l101.38582 0l0 27.275574l-101.38582 0z" fill-rule="evenodd"/><path fill="#000000" d="m156.57924 505.4828q0 0.625 -0.234375 1.25q-0.234375 0.609375 -0.734375 1.09375q-0.484375 0.484375 -1.25 0.78125q-0.765625 0.296875 -1.828125 0.296875l-1.265625 0l0 3.671875l-1.390625 0l0 -10.21875l2.875 0q0.765625 0 1.453125 0.171875q0.703125 0.171875 1.21875 0.546875q0.53125 0.375 0.84375 0.96875q0.3125 0.59375 0.3125 1.4375zm-1.4375 0.0625q0 -0.984375 -0.65625 -1.5q-0.640625 -0.53125 -1.796875 -0.53125l-1.421875 0l0 4.203125l1.296875 0q1.234375 0 1.90625 -0.53125q0.671875 -0.546875 0.671875 -1.640625zm10.375 3.046875q0 0.90625 -0.265625 1.671875q-0.25 0.765625 -0.734375 1.3125q-0.484375 0.53125 -1.1875 0.84375q-0.6875 0.296875 -1.5625 0.296875q-0.84375 0 -1.515625 -0.265625q-0.671875 -0.265625 -1.140625 -0.765625q-0.453125 -0.515625 -0.703125 -1.265625q-0.25 -0.75 -0.25 -1.71875q0 -0.921875 0.25 -1.671875q0.265625 -0.75 0.75 -1.296875q0.484375 -0.546875 1.171875 -0.84375q0.703125 -0.296875 1.59375 -0.296875q0.84375 0 1.5 0.265625q0.671875 0.25 1.140625 0.765625q0.46875 0.5 0.703125 1.25q0.25 0.75 0.25 1.71875zm-1.390625 0.0625q0 -0.734375 -0.15625 -1.265625q-0.15625 -0.546875 -0.453125 -0.90625q-0.296875 -0.375 -0.734375 -0.546875q-0.421875 -0.1875 -0.9375 -0.1875q-0.609375 0 -1.046875 0.234375q-0.4375 0.234375 -0.71875 0.640625q-0.265625 0.390625 -0.40625 0.921875q-0.125 0.53125 -0.125 1.109375q0 0.71875 0.15625 1.265625q0.171875 0.546875 0.46875 0.921875q0.296875 0.359375 0.71875 0.546875q0.421875 0.171875 0.953125 0.171875q0.609375 0 1.03125 -0.234375q0.4375 -0.234375 0.71875 -0.625q0.28125 -0.40625 0.40625 -0.9375q0.125 -0.53125 0.125 -1.109375zm9.578125 1.78125q0 0.40625 -0.140625 0.734375q-0.140625 0.328125 -0.390625 0.59375q-0.234375 0.25 -0.5625 0.4375q-0.3125 0.171875 -0.6875 0.296875q-0.359375 0.109375 -0.75 0.15625q-0.375 0.0625 -0.734375 0.0625q-0.796875 0 -1.46875 -0.078125q-0.671875 -0.0625 -1.3125 -0.21875l0 -1.25q0.6875 0.1875 1.359375 0.296875q0.6875 0.09375 1.359375 0.09375q0.984375 0 1.453125 -0.265625q0.46875 -0.265625 0.46875 -0.75q0 -0.21875 -0.078125 -0.375q-0.078125 -0.171875 -0.28125 -0.328125q-0.1875 -0.15625 -0.59375 -0.3125q-0.40625 -0.171875 -1.125 -0.375q-0.53125 -0.15625 -0.984375 -0.359375q-0.4375 -0.203125 -0.765625 -0.46875q-0.328125 -0.28125 -0.515625 -0.640625q-0.1875 -0.375 -0.1875 -0.875q0 -0.328125 0.140625 -0.71875q0.15625 -0.390625 0.515625 -0.71875q0.375 -0.34375 1.0 -0.5625q0.625 -0.21875 1.5625 -0.21875q0.46875 0 1.03125 0.046875q0.5625 0.046875 1.171875 0.171875l0 1.21875q-0.640625 -0.15625 -1.21875 -0.234375q-0.578125 -0.078125 -1.0 -0.078125q-0.5 0 -0.859375 0.078125q-0.34375 0.078125 -0.5625 0.21875q-0.203125 0.140625 -0.296875 0.328125q-0.09375 0.171875 -0.09375 0.390625q0 0.203125 0.078125 0.375q0.078125 0.171875 0.296875 0.34375q0.234375 0.15625 0.625 0.3125q0.40625 0.15625 1.046875 0.34375q0.6875 0.203125 1.15625 0.4375q0.484375 0.21875 0.78125 0.5q0.296875 0.265625 0.421875 0.609375q0.140625 0.34375 0.140625 0.78125zm5.25 -4.578125l-2.3125 0l0 -1.125l3.6875 0l0 6.703125l2.34375 0l0 1.140625l-6.296875 0l0 -1.140625l2.578125 0l0 -5.578125zm0.484375 -4.421875q0.21875 0 0.40625 0.09375q0.203125 0.078125 0.34375 0.234375q0.15625 0.140625 0.234375 0.328125q0.078125 0.1875 0.078125 0.421875q0 0.21875 -0.078125 0.421875q-0.078125 0.1875 -0.234375 0.34375q-0.140625 0.140625 -0.34375 0.21875q-0.1875 0.078125 -0.40625 0.078125q-0.234375 0 -0.4375 -0.078125q-0.1875 -0.078125 -0.328125 -0.21875q-0.140625 -0.15625 -0.234375 -0.34375q-0.078125 -0.203125 -0.078125 -0.421875q0 -0.234375 0.078125 -0.421875q0.09375 -0.1875 0.234375 -0.328125q0.140625 -0.15625 0.328125 -0.234375q0.203125 -0.09375 0.4375 -0.09375zm11.96875 11.03125q-0.46875 0.125 -0.96875 0.171875q-0.484375 0.046875 -0.984375 0.046875q-1.484375 0 -2.21875 -0.671875q-0.71875 -0.671875 -0.71875 -2.046875l0 -4.09375l-2.1875 0l0 -1.140625l2.1875 0l0 -2.15625l1.359375 -0.359375l0 2.515625l3.53125 0l0 1.140625l-3.53125 0l0 3.984375q0 0.84375 0.453125 1.265625q0.453125 0.40625 1.328125 0.40625q0.375 0 0.8125 -0.046875q0.453125 -0.0625 0.9375 -0.1875l0 1.171875zm5.140625 -6.609375l-2.3125 0l0 -1.125l3.6875 0l0 6.703125l2.34375 0l0 1.140625l-6.296875 0l0 -1.140625l2.578125 0l0 -5.578125zm0.484375 -4.421875q0.21875 0 0.40625 0.09375q0.203125 0.078125 0.34375 0.234375q0.15625 0.140625 0.234375 0.328125q0.078125 0.1875 0.078125 0.421875q0 0.21875 -0.078125 0.421875q-0.078125 0.1875 -0.234375 0.34375q-0.140625 0.140625 -0.34375 0.21875q-0.1875 0.078125 -0.40625 0.078125q-0.234375 0 -0.4375 -0.078125q-0.1875 -0.078125 -0.328125 -0.21875q-0.140625 -0.15625 -0.234375 -0.34375q-0.078125 -0.203125 -0.078125 -0.421875q0 -0.234375 0.078125 -0.421875q0.09375 -0.1875 0.234375 -0.328125q0.140625 -0.15625 0.328125 -0.234375q0.203125 -0.09375 0.4375 -0.09375zm4.90625 3.296875l1.546875 0l1.921875 5.1875l0.421875 1.265625l0.421875 -1.296875l1.90625 -5.15625l1.5 0l-3.078125 7.84375l-1.5625 0l-3.078125 -7.84375zm16.15625 3.5q0 0.296875 -0.015625 0.5q0 0.1875 -0.015625 0.359375l-5.5 0q0 1.203125 0.671875 1.84375q0.671875 0.640625 1.9375 0.640625q0.34375 0 0.6875 -0.015625q0.34375 -0.03125 0.65625 -0.078125q0.328125 -0.046875 0.609375 -0.109375q0.296875 -0.0625 0.546875 -0.125l0 1.109375q-0.546875 0.15625 -1.25 0.25q-0.703125 0.109375 -1.453125 0.109375q-1.0 0 -1.734375 -0.265625q-0.71875 -0.28125 -1.1875 -0.796875q-0.46875 -0.53125 -0.6875 -1.28125q-0.21875 -0.75 -0.21875 -1.703125q0 -0.828125 0.234375 -1.5625q0.234375 -0.75 0.6875 -1.296875q0.46875 -0.5625 1.125 -0.890625q0.671875 -0.328125 1.515625 -0.328125q0.8125 0 1.4375 0.265625q0.640625 0.25 1.078125 0.71875q0.4375 0.46875 0.65625 1.15625q0.21875 0.671875 0.21875 1.5zm-1.40625 -0.1875q0.015625 -0.53125 -0.109375 -0.953125q-0.125 -0.4375 -0.390625 -0.75q-0.25 -0.3125 -0.640625 -0.484375q-0.390625 -0.1875 -0.90625 -0.1875q-0.453125 0 -0.828125 0.171875q-0.359375 0.171875 -0.625 0.484375q-0.265625 0.3125 -0.4375 0.75q-0.15625 0.4375 -0.1875 0.96875l4.125 0z" fill-rule="nonzero"/><path fill="#000000" fill-opacity="0.0" d="m139.64174 529.07874l101.38582 0l0 27.275574l-101.38582 0z" fill-rule="evenodd"/><path fill="#000000" d="m156.51674 548.57654l-1.8125 0l-2.96875 -6.375l-0.859375 -2.046875l0 5.15625l0 3.265625l-1.296875 0l0 -10.21875l1.78125 0l2.84375 6.03125l1.015625 2.34375l0 -5.46875l0 -2.90625l1.296875 0l0 10.21875zm8.796875 -4.34375q0 0.296875 -0.015625 0.5q0 0.1875 -0.015625 0.359375l-5.5 0q0 1.203125 0.671875 1.84375q0.671875 0.640625 1.9375 0.640625q0.34375 0 0.6875 -0.015625q0.34375 -0.03125 0.65625 -0.078125q0.328125 -0.046875 0.609375 -0.109375q0.296875 -0.0625 0.546875 -0.125l0 1.109375q-0.546875 0.15625 -1.25 0.25q-0.703125 0.109375 -1.453125 0.109375q-1.0 0 -1.734375 -0.265625q-0.71875 -0.28125 -1.1875 -0.796875q-0.46875 -0.53125 -0.6875 -1.28125q-0.21875 -0.75 -0.21875 -1.703125q0 -0.828125 0.234375 -1.5625q0.234375 -0.75 0.6875 -1.296875q0.46875 -0.5625 1.125 -0.890625q0.671875 -0.328125 1.515625 -0.328125q0.8125 0 1.4375 0.265625q0.640625 0.25 1.078125 0.71875q0.4375 0.46875 0.65625 1.15625q0.21875 0.671875 0.21875 1.5zm-1.40625 -0.1875q0.015625 -0.53125 -0.109375 -0.953125q-0.125 -0.4375 -0.390625 -0.75q-0.25 -0.3125 -0.640625 -0.484375q-0.390625 -0.1875 -0.90625 -0.1875q-0.453125 0 -0.828125 0.171875q-0.359375 0.171875 -0.625 0.484375q-0.265625 0.3125 -0.4375 0.75q-0.15625 0.4375 -0.1875 0.96875l4.125 0zm9.234375 -2.203125q0.21875 0.265625 0.328125 0.640625q0.125 0.359375 0.125 0.78125q0 0.609375 -0.21875 1.109375q-0.21875 0.5 -0.625 0.859375q-0.40625 0.359375 -0.984375 0.5625q-0.5625 0.203125 -1.234375 0.203125q-0.5 0 -0.9375 -0.109375q-0.421875 -0.109375 -0.671875 -0.265625q-0.140625 0.21875 -0.25 0.421875q-0.09375 0.1875 -0.09375 0.4375q0 0.296875 0.28125 0.5q0.28125 0.1875 0.75 0.203125l2.0625 0.078125q0.59375 0.015625 1.078125 0.15625q0.5 0.125 0.859375 0.375q0.359375 0.25 0.546875 0.625q0.203125 0.359375 0.203125 0.84375q0 0.53125 -0.234375 1.0q-0.21875 0.46875 -0.6875 0.8125q-0.46875 0.359375 -1.203125 0.5625q-0.71875 0.21875 -1.71875 0.21875q-0.953125 0 -1.625 -0.15625q-0.671875 -0.140625 -1.109375 -0.421875q-0.421875 -0.265625 -0.625 -0.640625q-0.1875 -0.359375 -0.1875 -0.8125q0 -0.5625 0.265625 -1.0q0.265625 -0.4375 0.828125 -0.828125q-0.203125 -0.09375 -0.359375 -0.234375q-0.140625 -0.140625 -0.234375 -0.3125q-0.09375 -0.171875 -0.140625 -0.359375q-0.046875 -0.1875 -0.046875 -0.359375q0 -0.515625 0.234375 -0.9375q0.234375 -0.421875 0.5625 -0.796875q-0.140625 -0.171875 -0.265625 -0.34375q-0.109375 -0.171875 -0.1875 -0.375q-0.078125 -0.203125 -0.125 -0.421875q-0.046875 -0.234375 -0.046875 -0.53125q0 -0.609375 0.21875 -1.109375q0.234375 -0.515625 0.625 -0.875q0.40625 -0.359375 0.96875 -0.546875q0.578125 -0.203125 1.265625 -0.203125q0.28125 0 0.546875 0.046875q0.265625 0.03125 0.46875 0.09375l2.84375 0l0 1.109375l-1.25 0zm-4.71875 7.875q0 0.546875 0.578125 0.796875q0.578125 0.265625 1.609375 0.265625q0.640625 0 1.078125 -0.125q0.453125 -0.109375 0.71875 -0.3125q0.265625 -0.1875 0.375 -0.4375q0.125 -0.234375 0.125 -0.5q0 -0.46875 -0.390625 -0.703125q-0.390625 -0.234375 -1.1875 -0.265625l-2.046875 -0.078125q-0.265625 0.171875 -0.4375 0.34375q-0.15625 0.171875 -0.25 0.328125q-0.09375 0.171875 -0.140625 0.34375q-0.03125 0.171875 -0.03125 0.34375zm0.40625 -6.421875q0 0.375 0.125 0.6875q0.125 0.3125 0.34375 0.53125q0.234375 0.21875 0.546875 0.34375q0.3125 0.109375 0.6875 0.109375q0.40625 0 0.71875 -0.125q0.3125 -0.140625 0.53125 -0.375q0.21875 -0.234375 0.328125 -0.53125q0.109375 -0.3125 0.109375 -0.640625q0 -0.375 -0.125 -0.6875q-0.125 -0.3125 -0.359375 -0.53125q-0.21875 -0.21875 -0.53125 -0.34375q-0.296875 -0.125 -0.671875 -0.125q-0.40625 0 -0.734375 0.140625q-0.3125 0.140625 -0.53125 0.375q-0.203125 0.234375 -0.328125 0.546875q-0.109375 0.296875 -0.109375 0.625zm12.5 5.28125l-0.03125 -1.0625q-0.640625 0.640625 -1.3125 0.921875q-0.65625 0.28125 -1.375 0.28125q-0.671875 0 -1.15625 -0.171875q-0.46875 -0.171875 -0.78125 -0.46875q-0.3125 -0.3125 -0.453125 -0.71875q-0.140625 -0.40625 -0.140625 -0.875q0 -1.1875 0.875 -1.84375q0.875 -0.671875 2.59375 -0.671875l1.625 0l0 -0.6875q0 -0.703125 -0.453125 -1.109375q-0.4375 -0.421875 -1.34375 -0.421875q-0.671875 0 -1.3125 0.15625q-0.640625 0.140625 -1.328125 0.40625l0 -1.21875q0.25 -0.09375 0.5625 -0.1875q0.328125 -0.09375 0.671875 -0.15625q0.359375 -0.078125 0.734375 -0.109375q0.390625 -0.046875 0.78125 -0.046875q0.703125 0 1.265625 0.15625q0.578125 0.15625 0.96875 0.484375q0.40625 0.3125 0.609375 0.796875q0.21875 0.484375 0.21875 1.140625l0 5.40625l-1.21875 0zm-0.15625 -3.578125l-1.71875 0q-0.515625 0 -0.890625 0.109375q-0.359375 0.09375 -0.59375 0.28125q-0.234375 0.1875 -0.34375 0.453125q-0.109375 0.265625 -0.109375 0.59375q0 0.21875 0.0625 0.4375q0.078125 0.203125 0.234375 0.359375q0.15625 0.15625 0.40625 0.25q0.25 0.09375 0.609375 0.09375q0.46875 0 1.0625 -0.28125q0.609375 -0.28125 1.28125 -0.90625l0 -1.390625zm10.234375 3.46875q-0.46875 0.125 -0.96875 0.171875q-0.484375 0.046875 -0.984375 0.046875q-1.484375 0 -2.21875 -0.671875q-0.71875 -0.671875 -0.71875 -2.046875l0 -4.09375l-2.1875 0l0 -1.140625l2.1875 0l0 -2.15625l1.359375 -0.359375l0 2.515625l3.53125 0l0 1.140625l-3.53125 0l0 3.984375q0 0.84375 0.453125 1.265625q0.453125 0.40625 1.328125 0.40625q0.375 0 0.8125 -0.046875q0.453125 -0.0625 0.9375 -0.1875l0 1.171875zm5.140625 -6.609375l-2.3125 0l0 -1.125l3.6875 0l0 6.703125l2.34375 0l0 1.140625l-6.296875 0l0 -1.140625l2.578125 0l0 -5.578125zm0.484375 -4.421875q0.21875 0 0.40625 0.09375q0.203125 0.078125 0.34375 0.234375q0.15625 0.140625 0.234375 0.328125q0.078125 0.1875 0.078125 0.421875q0 0.21875 -0.078125 0.421875q-0.078125 0.1875 -0.234375 0.34375q-0.140625 0.140625 -0.34375 0.21875q-0.1875 0.078125 -0.40625 0.078125q-0.234375 0 -0.4375 -0.078125q-0.1875 -0.078125 -0.328125 -0.21875q-0.140625 -0.15625 -0.234375 -0.34375q-0.078125 -0.203125 -0.078125 -0.421875q0 -0.234375 0.078125 -0.421875q0.09375 -0.1875 0.234375 -0.328125q0.140625 -0.15625 0.328125 -0.234375q0.203125 -0.09375 0.4375 -0.09375zm4.90625 3.296875l1.546875 0l1.921875 5.1875l0.421875 1.265625l0.421875 -1.296875l1.90625 -5.15625l1.5 0l-3.078125 7.84375l-1.5625 0l-3.078125 -7.84375zm16.15625 3.5q0 0.296875 -0.015625 0.5q0 0.1875 -0.015625 0.359375l-5.5 0q0 1.203125 0.671875 1.84375q0.671875 0.640625 1.9375 0.640625q0.34375 0 0.6875 -0.015625q0.34375 -0.03125 0.65625 -0.078125q0.328125 -0.046875 0.609375 -0.109375q0.296875 -0.0625 0.546875 -0.125l0 1.109375q-0.546875 0.15625 -1.25 0.25q-0.703125 0.109375 -1.453125 0.109375q-1.0 0 -1.734375 -0.265625q-0.71875 -0.28125 -1.1875 -0.796875q-0.46875 -0.53125 -0.6875 -1.28125q-0.21875 -0.75 -0.21875 -1.703125q0 -0.828125 0.234375 -1.5625q0.234375 -0.75 0.6875 -1.296875q0.46875 -0.5625 1.125 -0.890625q0.671875 -0.328125 1.515625 -0.328125q0.8125 0 1.4375 0.265625q0.640625 0.25 1.078125 0.71875q0.4375 0.46875 0.65625 1.15625q0.21875 0.671875 0.21875 1.5zm-1.40625 -0.1875q0.015625 -0.53125 -0.109375 -0.953125q-0.125 -0.4375 -0.390625 -0.75q-0.25 -0.3125 -0.640625 -0.484375q-0.390625 -0.1875 -0.90625 -0.1875q-0.453125 0 -0.828125 0.171875q-0.359375 0.171875 -0.625 0.484375q-0.265625 0.3125 -0.4375 0.75q-0.15625 0.4375 -0.1875 0.96875l4.125 0z" fill-rule="nonzero"/><path fill="#000000" fill-opacity="0.0" d="m139.64174 565.07874l101.38582 0l0 27.275574l-101.38582 0z" fill-rule="evenodd"/><path fill="#000000" d="m152.34486 575.52966l-2.359375 0l0 -1.171875l6.109375 0l0 1.171875l-2.34375 0l0 7.859375l2.34375 0l0 1.1875l-6.109375 0l0 -1.1875l2.359375 0l0 -7.859375zm6.34375 1.203125l1.21875 0l0.046875 1.265625q0.34375 -0.40625 0.65625 -0.671875q0.328125 -0.28125 0.640625 -0.4375q0.3125 -0.171875 0.625 -0.234375q0.328125 -0.0625 0.671875 -0.0625q1.203125 0 1.828125 0.71875q0.625 0.703125 0.625 2.140625l0 5.125l-1.359375 0l0 -5.015625q0 -0.921875 -0.34375 -1.359375q-0.34375 -0.4375 -1.03125 -0.4375q-0.25 0 -0.484375 0.078125q-0.234375 0.0625 -0.5 0.25q-0.25 0.1875 -0.5625 0.5q-0.296875 0.3125 -0.671875 0.78125l0 5.203125l-1.359375 0l0 -7.84375zm8.0625 0l1.546875 0l1.921875 5.1875l0.421875 1.265625l0.421875 -1.296875l1.90625 -5.15625l1.5 0l-3.078125 7.84375l-1.5625 0l-3.078125 -7.84375zm16.15625 3.5q0 0.296875 -0.015625 0.5q0 0.1875 -0.015625 0.359375l-5.5 0q0 1.203125 0.671875 1.84375q0.671875 0.640625 1.9375 0.640625q0.34375 0 0.6875 -0.015625q0.34375 -0.03125 0.65625 -0.078125q0.328125 -0.046875 0.609375 -0.109375q0.296875 -0.0625 0.546875 -0.125l0 1.109375q-0.546875 0.15625 -1.25 0.25q-0.703125 0.109375 -1.453125 0.109375q-1.0 0 -1.734375 -0.265625q-0.71875 -0.28125 -1.1875 -0.796875q-0.46875 -0.53125 -0.6875 -1.28125q-0.21875 -0.75 -0.21875 -1.703125q0 -0.828125 0.234375 -1.5625q0.234375 -0.75 0.6875 -1.296875q0.46875 -0.5625 1.125 -0.890625q0.671875 -0.328125 1.515625 -0.328125q0.8125 0 1.4375 0.265625q0.640625 0.25 1.078125 0.71875q0.4375 0.46875 0.65625 1.15625q0.21875 0.671875 0.21875 1.5zm-1.40625 -0.1875q0.015625 -0.53125 -0.109375 -0.953125q-0.125 -0.4375 -0.390625 -0.75q-0.25 -0.3125 -0.640625 -0.484375q-0.390625 -0.1875 -0.90625 -0.1875q-0.453125 0 -0.828125 0.171875q-0.359375 0.171875 -0.625 0.484375q-0.265625 0.3125 -0.4375 0.75q-0.15625 0.4375 -0.1875 0.96875l4.125 0zm3.90625 -3.3125l1.234375 0l0.046875 1.4375q0.6875 -0.828125 1.359375 -1.203125q0.6875 -0.375 1.375 -0.375q1.21875 0 1.84375 0.796875q0.625 0.78125 0.578125 2.328125l-1.375 0q0.03125 -1.03125 -0.296875 -1.484375q-0.328125 -0.46875 -0.953125 -0.46875q-0.265625 0 -0.546875 0.09375q-0.28125 0.09375 -0.578125 0.3125q-0.28125 0.21875 -0.609375 0.5625q-0.328125 0.328125 -0.703125 0.796875l0 5.046875l-1.375 0l0 -7.84375zm14.6875 5.703125q0 0.40625 -0.140625 0.734375q-0.140625 0.328125 -0.390625 0.59375q-0.234375 0.25 -0.5625 0.4375q-0.3125 0.171875 -0.6875 0.296875q-0.359375 0.109375 -0.75 0.15625q-0.375 0.0625 -0.734375 0.0625q-0.796875 0 -1.46875 -0.078125q-0.671875 -0.0625 -1.3125 -0.21875l0 -1.25q0.6875 0.1875 1.359375 0.296875q0.6875 0.09375 1.359375 0.09375q0.984375 0 1.453125 -0.265625q0.46875 -0.265625 0.46875 -0.75q0 -0.21875 -0.078125 -0.375q-0.078125 -0.171875 -0.28125 -0.328125q-0.1875 -0.15625 -0.59375 -0.3125q-0.40625 -0.171875 -1.125 -0.375q-0.53125 -0.15625 -0.984375 -0.359375q-0.4375 -0.203125 -0.765625 -0.46875q-0.328125 -0.28125 -0.515625 -0.640625q-0.1875 -0.375 -0.1875 -0.875q0 -0.328125 0.140625 -0.71875q0.15625 -0.390625 0.515625 -0.71875q0.375 -0.34375 1.0 -0.5625q0.625 -0.21875 1.5625 -0.21875q0.46875 0 1.03125 0.046875q0.5625 0.046875 1.171875 0.171875l0 1.21875q-0.640625 -0.15625 -1.21875 -0.234375q-0.578125 -0.078125 -1.0 -0.078125q-0.5 0 -0.859375 0.078125q-0.34375 0.078125 -0.5625 0.21875q-0.203125 0.140625 -0.296875 0.328125q-0.09375 0.171875 -0.09375 0.390625q0 0.203125 0.078125 0.375q0.078125 0.171875 0.296875 0.34375q0.234375 0.15625 0.625 0.3125q0.40625 0.15625 1.046875 0.34375q0.6875 0.203125 1.15625 0.4375q0.484375 0.21875 0.78125 0.5q0.296875 0.265625 0.421875 0.609375q0.140625 0.34375 0.140625 0.78125zm9.203125 -2.203125q0 0.296875 -0.015625 0.5q0 0.1875 -0.015625 0.359375l-5.5 0q0 1.203125 0.671875 1.84375q0.671875 0.640625 1.9375 0.640625q0.34375 0 0.6875 -0.015625q0.34375 -0.03125 0.65625 -0.078125q0.328125 -0.046875 0.609375 -0.109375q0.296875 -0.0625 0.546875 -0.125l0 1.109375q-0.546875 0.15625 -1.25 0.25q-0.703125 0.109375 -1.453125 0.109375q-1.0 0 -1.734375 -0.265625q-0.71875 -0.28125 -1.1875 -0.796875q-0.46875 -0.53125 -0.6875 -1.28125q-0.21875 -0.75 -0.21875 -1.703125q0 -0.828125 0.234375 -1.5625q0.234375 -0.75 0.6875 -1.296875q0.46875 -0.5625 1.125 -0.890625q0.671875 -0.328125 1.515625 -0.328125q0.8125 0 1.4375 0.265625q0.640625 0.25 1.078125 0.71875q0.4375 0.46875 0.65625 1.15625q0.21875 0.671875 0.21875 1.5zm-1.40625 -0.1875q0.015625 -0.53125 -0.109375 -0.953125q-0.125 -0.4375 -0.390625 -0.75q-0.25 -0.3125 -0.640625 -0.484375q-0.390625 -0.1875 -0.90625 -0.1875q-0.453125 0 -0.828125 0.171875q-0.359375 0.171875 -0.625 0.484375q-0.265625 0.3125 -0.4375 0.75q-0.15625 0.4375 -0.1875 0.96875l4.125 0z" fill-rule="nonzero"/><path fill="#000000" fill-opacity="0.0" d="m139.64174 601.07874l101.38582 0l0 27.275574l-101.38582 0z" fill-rule="evenodd"/><path fill="#000000" d="m156.57924 620.57654l-1.390625 0l0 -4.6875l-4.28125 0l0 4.6875l-1.390625 0l0 -10.21875l1.390625 0l0 4.328125l4.28125 0l0 -4.328125l1.390625 0l0 10.21875zm9.09375 -7.84375l-2.671875 7.015625q-0.421875 1.078125 -0.859375 1.84375q-0.4375 0.78125 -0.96875 1.265625q-0.515625 0.5 -1.140625 0.734375q-0.625 0.234375 -1.40625 0.234375q-0.203125 0 -0.375 -0.015625q-0.15625 0 -0.34375 -0.015625l0 -1.234375q0.171875 0.03125 0.375 0.046875q0.203125 0.015625 0.421875 0.015625q0.375 0 0.703125 -0.109375q0.328125 -0.109375 0.609375 -0.359375q0.296875 -0.234375 0.5625 -0.625q0.265625 -0.390625 0.515625 -0.953125l-3.140625 -7.84375l1.546875 0l1.984375 5.1875l0.40625 1.21875l0.453125 -1.25l1.828125 -5.15625l1.5 0zm8.515625 3.78125q0 1.046875 -0.296875 1.828125q-0.28125 0.78125 -0.796875 1.296875q-0.515625 0.515625 -1.21875 0.78125q-0.703125 0.25 -1.53125 0.25q-0.375 0 -0.75 -0.046875q-0.359375 -0.03125 -0.75 -0.125l0 3.28125l-1.359375 0l0 -11.046875l1.21875 0l0.078125 1.3125q0.59375 -0.8125 1.25 -1.125q0.671875 -0.328125 1.4375 -0.328125q0.671875 0 1.171875 0.28125q0.515625 0.28125 0.859375 0.796875q0.34375 0.5 0.515625 1.234375q0.171875 0.71875 0.171875 1.609375zm-1.390625 0.0625q0 -0.625 -0.09375 -1.140625q-0.078125 -0.515625 -0.28125 -0.875q-0.1875 -0.375 -0.5 -0.578125q-0.296875 -0.203125 -0.71875 -0.203125q-0.265625 0 -0.53125 0.078125q-0.265625 0.078125 -0.546875 0.28125q-0.28125 0.1875 -0.609375 0.5q-0.3125 0.3125 -0.671875 0.78125l0 3.8125q0.375 0.15625 0.78125 0.25q0.421875 0.078125 0.828125 0.078125q1.09375 0 1.71875 -0.734375q0.625 -0.75 0.625 -2.25zm10.109375 -0.34375q0 0.296875 -0.015625 0.5q0 0.1875 -0.015625 0.359375l-5.5 0q0 1.203125 0.671875 1.84375q0.671875 0.640625 1.9375 0.640625q0.34375 0 0.6875 -0.015625q0.34375 -0.03125 0.65625 -0.078125q0.328125 -0.046875 0.609375 -0.109375q0.296875 -0.0625 0.546875 -0.125l0 1.109375q-0.546875 0.15625 -1.25 0.25q-0.703125 0.109375 -1.453125 0.109375q-1.0 0 -1.734375 -0.265625q-0.71875 -0.28125 -1.1875 -0.796875q-0.46875 -0.53125 -0.6875 -1.28125q-0.21875 -0.75 -0.21875 -1.703125q0 -0.828125 0.234375 -1.5625q0.234375 -0.75 0.6875 -1.296875q0.46875 -0.5625 1.125 -0.890625q0.671875 -0.328125 1.515625 -0.328125q0.8125 0 1.4375 0.265625q0.640625 0.25 1.078125 0.71875q0.4375 0.46875 0.65625 1.15625q0.21875 0.671875 0.21875 1.5zm-1.40625 -0.1875q0.015625 -0.53125 -0.109375 -0.953125q-0.125 -0.4375 -0.390625 -0.75q-0.25 -0.3125 -0.640625 -0.484375q-0.390625 -0.1875 -0.90625 -0.1875q-0.453125 0 -0.828125 0.171875q-0.359375 0.171875 -0.625 0.484375q-0.265625 0.3125 -0.4375 0.75q-0.15625 0.4375 -0.1875 0.96875l4.125 0zm3.90625 -3.3125l1.234375 0l0.046875 1.4375q0.6875 -0.828125 1.359375 -1.203125q0.6875 -0.375 1.375 -0.375q1.21875 0 1.84375 0.796875q0.625 0.78125 0.578125 2.328125l-1.375 0q0.03125 -1.03125 -0.296875 -1.484375q-0.328125 -0.46875 -0.953125 -0.46875q-0.265625 0 -0.546875 0.09375q-0.28125 0.09375 -0.578125 0.3125q-0.28125 0.21875 -0.609375 0.5625q-0.328125 0.328125 -0.703125 0.796875l0 5.046875l-1.375 0l0 -7.84375z" fill-rule="nonzero"/><path fill="#000000" fill-opacity="0.0" d="m232.81726 137.27559l27.84253 0l0 27.275589l-27.84253 0z" fill-rule="evenodd"/><path fill="#000000" d="m243.17664 147.75526l0 -1.828125l7.53125 0l0 1.828125l-2.625 0l0 8.234375l2.625 0l0 1.84375l-7.53125 0l0 -1.84375l2.625 0l0 -8.234375l-2.625 0z" fill-rule="nonzero"/><path fill="#000000" fill-opacity="0.0" d="m697.57513 137.27559l27.84253 0l0 27.275589l-27.84253 0z" fill-rule="evenodd"/><path fill="#000000" d="m715.71576 157.36464q-0.78125 0.328125 -1.53125 0.46875q-0.734375 0.15625 -1.546875 0.15625q-1.28125 0 -2.265625 -0.375q-0.984375 -0.375 -1.671875 -1.125q-0.671875 -0.75 -1.03125 -1.84375q-0.34375 -1.109375 -0.34375 -2.578125q0 -1.5 0.375 -2.671875q0.390625 -1.171875 1.09375 -1.96875q0.71875 -0.8125 1.734375 -1.234375q1.015625 -0.421875 2.28125 -0.421875q0.40625 0 0.765625 0.015625q0.359375 0.015625 0.703125 0.0625q0.34375 0.046875 0.703125 0.140625q0.359375 0.078125 0.734375 0.203125l0 2.21875q-0.765625 -0.359375 -1.46875 -0.515625q-0.703125 -0.15625 -1.28125 -0.15625q-0.84375 0 -1.453125 0.3125q-0.59375 0.296875 -0.984375 0.859375q-0.375 0.546875 -0.5625 1.3125q-0.1875 0.75 -0.1875 1.65625q0 0.96875 0.1875 1.734375q0.1875 0.75 0.578125 1.28125q0.390625 0.53125 1.0 0.8125q0.609375 0.28125 1.453125 0.28125q0.296875 0 0.640625 -0.0625q0.359375 -0.0625 0.71875 -0.15625q0.359375 -0.09375 0.703125 -0.21875q0.359375 -0.140625 0.65625 -0.28125l0 2.09375z" fill-rule="nonzero"/><path fill="#000000" fill-opacity="0.0" d="m464.81726 539.54926l27.84253 0l0 27.275635l-27.84253 0z" fill-rule="evenodd"/><path fill="#000000" d="m475.48914 560.10706l0 -11.90625l7.171875 0l0 1.890625l-4.890625 0l0 2.96875l4.671875 0l0 1.84375l-4.671875 0l0 3.3125l4.890625 0l0 1.890625l-7.171875 0z" fill-rule="nonzero"/><path fill="#000000" fill-opacity="0.0" d="m465.57516 317.82297l27.842499 0l0 27.275574l-27.842499 0z" fill-rule="evenodd"/><path fill="#000000" d="m484.0439 334.00574q0 1.125 -0.3125 2.0q-0.296875 0.859375 -0.875 1.4375q-0.5625 0.5625 -1.390625 0.859375q-0.8125 0.28125 -1.828125 0.28125q-1.15625 0 -1.984375 -0.28125q-0.8125 -0.296875 -1.328125 -0.84375q-0.5 -0.546875 -0.734375 -1.328125q-0.21875 -0.78125 -0.21875 -1.765625l0 -7.890625l2.234375 0l0 7.765625q0 0.59375 0.109375 1.0625q0.109375 0.46875 0.359375 0.796875q0.265625 0.3125 0.65625 0.484375q0.390625 0.15625 0.984375 0.15625q0.546875 0 0.921875 -0.140625q0.390625 -0.140625 0.640625 -0.453125q0.265625 -0.3125 0.390625 -0.796875q0.125 -0.5 0.125 -1.203125l0 -7.671875l2.25 0l0 7.53125z" fill-rule="nonzero"/><path fill="#000000" fill-opacity="0.0" d="m772.52435 442.21115l101.3858 0l0 27.275604l-101.3858 0z" fill-rule="evenodd"/><path fill="#000000" d="m785.2275 452.66208l-2.359375 0l0 -1.171875l6.109375 0l0 1.171875l-2.34375 0l0 7.859375l2.34375 0l0 1.1875l-6.109375 0l0 -1.1875l2.359375 0l0 -7.859375zm6.34375 1.203125l1.21875 0l0.046875 1.265625q0.34375 -0.40625 0.65625 -0.671875q0.328125 -0.28125 0.640625 -0.4375q0.3125 -0.171875 0.625 -0.234375q0.328125 -0.0625 0.671875 -0.0625q1.203125 0 1.828125 0.71875q0.625 0.703125 0.625 2.140625l0 5.125l-1.359375 0l0 -5.015625q0 -0.921875 -0.34375 -1.359375q-0.34375 -0.4375 -1.03125 -0.4375q-0.25 0 -0.484375 0.078125q-0.234375 0.0625 -0.5 0.25q-0.25 0.1875 -0.5625 0.5q-0.296875 0.3125 -0.671875 0.78125l0 5.203125l-1.359375 0l0 -7.84375zm15.765625 -1.9375q-1.078125 -0.21875 -1.84375 -0.21875q-1.84375 0 -1.84375 1.921875l0 1.375l3.4375 0l0 1.125l-3.4375 0l0 5.578125l-1.375 0l0 -5.578125l-2.53125 0l0 -1.125l2.53125 0l0 -1.296875q0 -3.140625 3.265625 -3.140625q0.8125 0 1.796875 0.1875l0 1.171875zm-8.21875 1.9375l0 0zm16.671875 3.5q0 0.296875 -0.015625 0.5q0 0.1875 -0.015625 0.359375l-5.5 0q0 1.203125 0.671875 1.84375q0.671875 0.640625 1.9375 0.640625q0.34375 0 0.6875 -0.015625q0.34375 -0.03125 0.65625 -0.078125q0.328125 -0.046875 0.609375 -0.109375q0.296875 -0.0625 0.546875 -0.125l0 1.109375q-0.546875 0.15625 -1.25 0.25q-0.703125 0.109375 -1.453125 0.109375q-1.0 0 -1.734375 -0.265625q-0.71875 -0.28125 -1.1875 -0.796875q-0.46875 -0.53125 -0.6875 -1.28125q-0.21875 -0.75 -0.21875 -1.703125q0 -0.828125 0.234375 -1.5625q0.234375 -0.75 0.6875 -1.296875q0.46875 -0.5625 1.125 -0.890625q0.671875 -0.328125 1.515625 -0.328125q0.8125 0 1.4375 0.265625q0.640625 0.25 1.078125 0.71875q0.4375 0.46875 0.65625 1.15625q0.21875 0.671875 0.21875 1.5zm-1.40625 -0.1875q0.015625 -0.53125 -0.109375 -0.953125q-0.125 -0.4375 -0.390625 -0.75q-0.25 -0.3125 -0.640625 -0.484375q-0.390625 -0.1875 -0.90625 -0.1875q-0.453125 0 -0.828125 0.171875q-0.359375 0.171875 -0.625 0.484375q-0.265625 0.3125 -0.4375 0.75q-0.15625 0.4375 -0.1875 0.96875l4.125 0zm3.90625 -3.3125l1.234375 0l0.046875 1.4375q0.6875 -0.828125 1.359375 -1.203125q0.6875 -0.375 1.375 -0.375q1.21875 0 1.84375 0.796875q0.625 0.78125 0.578125 2.328125l-1.375 0q0.03125 -1.03125 -0.296875 -1.484375q-0.328125 -0.46875 -0.953125 -0.46875q-0.265625 0 -0.546875 0.09375q-0.28125 0.09375 -0.578125 0.3125q-0.28125 0.21875 -0.609375 0.5625q-0.328125 0.328125 -0.703125 0.796875l0 5.046875l-1.375 0l0 -7.84375zm8.46875 0l1.21875 0l0.046875 1.265625q0.34375 -0.40625 0.65625 -0.671875q0.328125 -0.28125 0.640625 -0.4375q0.3125 -0.171875 0.625 -0.234375q0.328125 -0.0625 0.671875 -0.0625q1.203125 0 1.828125 0.71875q0.625 0.703125 0.625 2.140625l0 5.125l-1.359375 0l0 -5.015625q0 -0.921875 -0.34375 -1.359375q-0.34375 -0.4375 -1.03125 -0.4375q-0.25 0 -0.484375 0.078125q-0.234375 0.0625 -0.5 0.25q-0.25 0.1875 -0.5625 0.5q-0.296875 0.3125 -0.671875 0.78125l0 5.203125l-1.359375 0l0 -7.84375zm13.84375 7.84375l-0.03125 -1.0625q-0.640625 0.640625 -1.3125 0.921875q-0.65625 0.28125 -1.375 0.28125q-0.671875 0 -1.15625 -0.171875q-0.46875 -0.171875 -0.78125 -0.46875q-0.3125 -0.3125 -0.453125 -0.71875q-0.140625 -0.40625 -0.140625 -0.875q0 -1.1875 0.875 -1.84375q0.875 -0.671875 2.59375 -0.671875l1.625 0l0 -0.6875q0 -0.703125 -0.453125 -1.109375q-0.4375 -0.421875 -1.34375 -0.421875q-0.671875 0 -1.3125 0.15625q-0.640625 0.140625 -1.328125 0.40625l0 -1.21875q0.25 -0.09375 0.5625 -0.1875q0.328125 -0.09375 0.671875 -0.15625q0.359375 -0.078125 0.734375 -0.109375q0.390625 -0.046875 0.78125 -0.046875q0.703125 0 1.265625 0.15625q0.578125 0.15625 0.96875 0.484375q0.40625 0.3125 0.609375 0.796875q0.21875 0.484375 0.21875 1.140625l0 5.40625l-1.21875 0zm-0.15625 -3.578125l-1.71875 0q-0.515625 0 -0.890625 0.109375q-0.359375 0.09375 -0.59375 0.28125q-0.234375 0.1875 -0.34375 0.453125q-0.109375 0.265625 -0.109375 0.59375q0 0.21875 0.0625 0.4375q0.078125 0.203125 0.234375 0.359375q0.15625 0.15625 0.40625 0.25q0.25 0.09375 0.609375 0.09375q0.46875 0 1.0625 -0.28125q0.609375 -0.28125 1.28125 -0.90625l0 -1.390625zm6.578125 -6.34375l-2.3125 0l0 -1.125l3.6875 0l0 9.90625l2.34375 0l0 1.140625l-6.296875 0l0 -1.140625l2.578125 0l0 -8.78125z" fill-rule="nonzero"/><path fill="#000000" fill-opacity="0.0" d="m772.52435 495.5445l101.3858 0l0 27.275574l-101.3858 0z" fill-rule="evenodd"/><path fill="#000000" d="m789.3056 514.6517q-1.234375 0.515625 -2.578125 0.515625q-2.15625 0 -3.328125 -1.296875q-1.15625 -1.296875 -1.15625 -3.828125q0 -1.21875 0.3125 -2.203125q0.328125 -1.0 0.921875 -1.6875q0.59375 -0.703125 1.4375 -1.078125q0.84375 -0.375 1.890625 -0.375q0.71875 0 1.328125 0.125q0.609375 0.125 1.171875 0.375l0 1.359375q-0.5625 -0.296875 -1.15625 -0.453125q-0.59375 -0.171875 -1.296875 -0.171875q-0.71875 0 -1.296875 0.28125q-0.578125 0.265625 -0.984375 0.78125q-0.40625 0.5 -0.625 1.25q-0.21875 0.734375 -0.21875 1.671875q0 1.984375 0.796875 3.0q0.8125 1.0 2.359375 1.0q0.65625 0 1.25 -0.140625q0.609375 -0.15625 1.171875 -0.4375l0 1.3125zm8.890625 -3.953125q0 0.296875 -0.015625 0.5q0 0.1875 -0.015625 0.359375l-5.5 0q0 1.203125 0.671875 1.84375q0.671875 0.640625 1.9375 0.640625q0.34375 0 0.6875 -0.015625q0.34375 -0.03125 0.65625 -0.078125q0.328125 -0.046875 0.609375 -0.109375q0.296875 -0.0625 0.546875 -0.125l0 1.109375q-0.546875 0.15625 -1.25 0.25q-0.703125 0.109375 -1.453125 0.109375q-1.0 0 -1.734375 -0.265625q-0.71875 -0.28125 -1.1875 -0.796875q-0.46875 -0.53125 -0.6875 -1.28125q-0.21875 -0.75 -0.21875 -1.703125q0 -0.828125 0.234375 -1.5625q0.234375 -0.75 0.6875 -1.296875q0.46875 -0.5625 1.125 -0.890625q0.671875 -0.328125 1.515625 -0.328125q0.8125 0 1.4375 0.265625q0.640625 0.25 1.078125 0.71875q0.4375 0.46875 0.65625 1.15625q0.21875 0.671875 0.21875 1.5zm-1.40625 -0.1875q0.015625 -0.53125 -0.109375 -0.953125q-0.125 -0.4375 -0.390625 -0.75q-0.25 -0.3125 -0.640625 -0.484375q-0.390625 -0.1875 -0.90625 -0.1875q-0.453125 0 -0.828125 0.171875q-0.359375 0.171875 -0.625 0.484375q-0.265625 0.3125 -0.4375 0.75q-0.15625 0.4375 -0.1875 0.96875l4.125 0zm6.25 -5.390625l-2.3125 0l0 -1.125l3.6875 0l0 9.90625l2.34375 0l0 1.140625l-6.296875 0l0 -1.140625l2.578125 0l0 -8.78125zm12.75 5.578125q0 0.296875 -0.015625 0.5q0 0.1875 -0.015625 0.359375l-5.5 0q0 1.203125 0.671875 1.84375q0.671875 0.640625 1.9375 0.640625q0.34375 0 0.6875 -0.015625q0.34375 -0.03125 0.65625 -0.078125q0.328125 -0.046875 0.609375 -0.109375q0.296875 -0.0625 0.546875 -0.125l0 1.109375q-0.546875 0.15625 -1.25 0.25q-0.703125 0.109375 -1.453125 0.109375q-1.0 0 -1.734375 -0.265625q-0.71875 -0.28125 -1.1875 -0.796875q-0.46875 -0.53125 -0.6875 -1.28125q-0.21875 -0.75 -0.21875 -1.703125q0 -0.828125 0.234375 -1.5625q0.234375 -0.75 0.6875 -1.296875q0.46875 -0.5625 1.125 -0.890625q0.671875 -0.328125 1.515625 -0.328125q0.8125 0 1.4375 0.265625q0.640625 0.25 1.078125 0.71875q0.4375 0.46875 0.65625 1.15625q0.21875 0.671875 0.21875 1.5zm-1.40625 -0.1875q0.015625 -0.53125 -0.109375 -0.953125q-0.125 -0.4375 -0.390625 -0.75q-0.25 -0.3125 -0.640625 -0.484375q-0.390625 -0.1875 -0.90625 -0.1875q-0.453125 0 -0.828125 0.171875q-0.359375 0.171875 -0.625 0.484375q-0.265625 0.3125 -0.4375 0.75q-0.15625 0.4375 -0.1875 0.96875l4.125 0zm9.796875 2.390625q0 0.40625 -0.140625 0.734375q-0.140625 0.328125 -0.390625 0.59375q-0.234375 0.25 -0.5625 0.4375q-0.3125 0.171875 -0.6875 0.296875q-0.359375 0.109375 -0.75 0.15625q-0.375 0.0625 -0.734375 0.0625q-0.796875 0 -1.46875 -0.078125q-0.671875 -0.0625 -1.3125 -0.21875l0 -1.25q0.6875 0.1875 1.359375 0.296875q0.6875 0.09375 1.359375 0.09375q0.984375 0 1.453125 -0.265625q0.46875 -0.265625 0.46875 -0.75q0 -0.21875 -0.078125 -0.375q-0.078125 -0.171875 -0.28125 -0.328125q-0.1875 -0.15625 -0.59375 -0.3125q-0.40625 -0.171875 -1.125 -0.375q-0.53125 -0.15625 -0.984375 -0.359375q-0.4375 -0.203125 -0.765625 -0.46875q-0.328125 -0.28125 -0.515625 -0.640625q-0.1875 -0.375 -0.1875 -0.875q0 -0.328125 0.140625 -0.71875q0.15625 -0.390625 0.515625 -0.71875q0.375 -0.34375 1.0 -0.5625q0.625 -0.21875 1.5625 -0.21875q0.46875 0 1.03125 0.046875q0.5625 0.046875 1.171875 0.171875l0 1.21875q-0.640625 -0.15625 -1.21875 -0.234375q-0.578125 -0.078125 -1.0 -0.078125q-0.5 0 -0.859375 0.078125q-0.34375 0.078125 -0.5625 0.21875q-0.203125 0.140625 -0.296875 0.328125q-0.09375 0.171875 -0.09375 0.390625q0 0.203125 0.078125 0.375q0.078125 0.171875 0.296875 0.34375q0.234375 0.15625 0.625 0.3125q0.40625 0.15625 1.046875 0.34375q0.6875 0.203125 1.15625 0.4375q0.484375 0.21875 0.78125 0.5q0.296875 0.265625 0.421875 0.609375q0.140625 0.34375 0.140625 0.78125zm8.90625 2.03125q-0.46875 0.125 -0.96875 0.171875q-0.484375 0.046875 -0.984375 0.046875q-1.484375 0 -2.21875 -0.671875q-0.71875 -0.671875 -0.71875 -2.046875l0 -4.09375l-2.1875 0l0 -1.140625l2.1875 0l0 -2.15625l1.359375 -0.359375l0 2.515625l3.53125 0l0 1.140625l-3.53125 0l0 3.984375q0 0.84375 0.453125 1.265625q0.453125 0.40625 1.328125 0.40625q0.375 0 0.8125 -0.046875q0.453125 -0.0625 0.9375 -0.1875l0 1.171875zm5.140625 -6.609375l-2.3125 0l0 -1.125l3.6875 0l0 6.703125l2.34375 0l0 1.140625l-6.296875 0l0 -1.140625l2.578125 0l0 -5.578125zm0.484375 -4.421875q0.21875 0 0.40625 0.09375q0.203125 0.078125 0.34375 0.234375q0.15625 0.140625 0.234375 0.328125q0.078125 0.1875 0.078125 0.421875q0 0.21875 -0.078125 0.421875q-0.078125 0.1875 -0.234375 0.34375q-0.140625 0.140625 -0.34375 0.21875q-0.1875 0.078125 -0.40625 0.078125q-0.234375 0 -0.4375 -0.078125q-0.1875 -0.078125 -0.328125 -0.21875q-0.140625 -0.15625 -0.234375 -0.34375q-0.078125 -0.203125 -0.078125 -0.421875q0 -0.234375 0.078125 -0.421875q0.09375 -0.1875 0.234375 -0.328125q0.140625 -0.15625 0.328125 -0.234375q0.203125 -0.09375 0.4375 -0.09375zm10.6875 11.140625l-0.03125 -1.0625q-0.640625 0.640625 -1.3125 0.921875q-0.65625 0.28125 -1.375 0.28125q-0.671875 0 -1.15625 -0.171875q-0.46875 -0.171875 -0.78125 -0.46875q-0.3125 -0.3125 -0.453125 -0.71875q-0.140625 -0.40625 -0.140625 -0.875q0 -1.1875 0.875 -1.84375q0.875 -0.671875 2.59375 -0.671875l1.625 0l0 -0.6875q0 -0.703125 -0.453125 -1.109375q-0.4375 -0.421875 -1.34375 -0.421875q-0.671875 0 -1.3125 0.15625q-0.640625 0.140625 -1.328125 0.40625l0 -1.21875q0.25 -0.09375 0.5625 -0.1875q0.328125 -0.09375 0.671875 -0.15625q0.359375 -0.078125 0.734375 -0.109375q0.390625 -0.046875 0.78125 -0.046875q0.703125 0 1.265625 0.15625q0.578125 0.15625 0.96875 0.484375q0.40625 0.3125 0.609375 0.796875q0.21875 0.484375 0.21875 1.140625l0 5.40625l-1.21875 0zm-0.15625 -3.578125l-1.71875 0q-0.515625 0 -0.890625 0.109375q-0.359375 0.09375 -0.59375 0.28125q-0.234375 0.1875 -0.34375 0.453125q-0.109375 0.265625 -0.109375 0.59375q0 0.21875 0.0625 0.4375q0.078125 0.203125 0.234375 0.359375q0.15625 0.15625 0.40625 0.25q0.25 0.09375 0.609375 0.09375q0.46875 0 1.0625 -0.28125q0.609375 -0.28125 1.28125 -0.90625l0 -1.390625zm6.578125 -6.34375l-2.3125 0l0 -1.125l3.6875 0l0 9.90625l2.34375 0l0 1.140625l-6.296875 0l0 -1.140625l2.578125 0l0 -8.78125z" fill-rule="nonzero"/><path fill="#000000" fill-opacity="0.0" d="m772.52435 548.8778l101.3858 0l0 27.275635l-101.3858 0z" fill-rule="evenodd"/><path fill="#000000" d="m788.89935 568.3756l-5.796875 0l0 -10.21875l5.796875 0l0 1.171875l-4.40625 0l0 3.171875l4.234375 0l0 1.171875l-4.234375 0l0 3.515625l4.40625 0l0 1.1875zm9.75 0l-1.8125 0l-2.109375 -3.0l-2.09375 3.0l-1.765625 0l3.046875 -3.9375l-2.90625 -3.90625l1.75 0l2.0625 3.015625l2.015625 -3.015625l1.6875 0l-2.953125 3.9375l3.078125 3.90625zm8.546875 -3.984375q0 0.90625 -0.265625 1.671875q-0.25 0.765625 -0.734375 1.3125q-0.484375 0.53125 -1.1875 0.84375q-0.6875 0.296875 -1.5625 0.296875q-0.84375 0 -1.515625 -0.265625q-0.671875 -0.265625 -1.140625 -0.765625q-0.453125 -0.515625 -0.703125 -1.265625q-0.25 -0.75 -0.25 -1.71875q0 -0.921875 0.25 -1.671875q0.265625 -0.75 0.75 -1.296875q0.484375 -0.546875 1.171875 -0.84375q0.703125 -0.296875 1.59375 -0.296875q0.84375 0 1.5 0.265625q0.671875 0.25 1.140625 0.765625q0.46875 0.5 0.703125 1.25q0.25 0.75 0.25 1.71875zm-1.390625 0.0625q0 -0.734375 -0.15625 -1.265625q-0.15625 -0.546875 -0.453125 -0.90625q-0.296875 -0.375 -0.734375 -0.546875q-0.421875 -0.1875 -0.9375 -0.1875q-0.609375 0 -1.046875 0.234375q-0.4375 0.234375 -0.71875 0.640625q-0.265625 0.390625 -0.40625 0.921875q-0.125 0.53125 -0.125 1.109375q0 0.71875 0.15625 1.265625q0.171875 0.546875 0.46875 0.921875q0.296875 0.359375 0.71875 0.546875q0.421875 0.171875 0.953125 0.171875q0.609375 0 1.03125 -0.234375q0.4375 -0.234375 0.71875 -0.625q0.28125 -0.40625 0.40625 -0.9375q0.125 -0.53125 0.125 -1.109375zm9.6875 3.8125q-0.46875 0.125 -0.96875 0.171875q-0.484375 0.046875 -0.984375 0.046875q-1.484375 0 -2.21875 -0.671875q-0.71875 -0.671875 -0.71875 -2.046875l0 -4.09375l-2.1875 0l0 -1.140625l2.1875 0l0 -2.15625l1.359375 -0.359375l0 2.515625l3.53125 0l0 1.140625l-3.53125 0l0 3.984375q0 0.84375 0.453125 1.265625q0.453125 0.40625 1.328125 0.40625q0.375 0 0.8125 -0.046875q0.453125 -0.0625 0.9375 -0.1875l0 1.171875zm5.140625 -6.609375l-2.3125 0l0 -1.125l3.6875 0l0 6.703125l2.34375 0l0 1.140625l-6.296875 0l0 -1.140625l2.578125 0l0 -5.578125zm0.484375 -4.421875q0.21875 0 0.40625 0.09375q0.203125 0.078125 0.34375 0.234375q0.15625 0.140625 0.234375 0.328125q0.078125 0.1875 0.078125 0.421875q0 0.21875 -0.078125 0.421875q-0.078125 0.1875 -0.234375 0.34375q-0.140625 0.140625 -0.34375 0.21875q-0.1875 0.078125 -0.40625 0.078125q-0.234375 0 -0.4375 -0.078125q-0.1875 -0.078125 -0.328125 -0.21875q-0.140625 -0.15625 -0.234375 -0.34375q-0.078125 -0.203125 -0.078125 -0.421875q0 -0.234375 0.078125 -0.421875q0.09375 -0.1875 0.234375 -0.328125q0.140625 -0.15625 0.328125 -0.234375q0.203125 -0.09375 0.4375 -0.09375zm11.734375 10.84375q-0.53125 0.203125 -1.09375 0.296875q-0.546875 0.109375 -1.140625 0.109375q-1.859375 0 -2.875 -1.0q-1.0 -1.015625 -1.0 -2.953125q0 -0.9375 0.28125 -1.6875q0.296875 -0.765625 0.8125 -1.296875q0.53125 -0.546875 1.25 -0.828125q0.734375 -0.296875 1.609375 -0.296875q0.609375 0 1.140625 0.09375q0.53125 0.078125 1.015625 0.265625l0 1.296875q-0.5 -0.265625 -1.03125 -0.375q-0.53125 -0.125 -1.09375 -0.125q-0.515625 0 -0.984375 0.203125q-0.46875 0.1875 -0.828125 0.5625q-0.34375 0.375 -0.546875 0.921875q-0.203125 0.53125 -0.203125 1.21875q0 1.421875 0.6875 2.125q0.703125 0.703125 1.921875 0.703125q0.5625 0 1.078125 -0.125q0.515625 -0.125 1.0 -0.375l0 1.265625z" fill-rule="nonzero"/><path fill="#000000" fill-opacity="0.0" d="m772.52435 602.2112l101.3858 0l0 27.275574l-101.3858 0z" fill-rule="evenodd"/><path fill="#000000" d="m789.3056 621.31836q-1.234375 0.515625 -2.578125 0.515625q-2.15625 0 -3.328125 -1.296875q-1.15625 -1.296875 -1.15625 -3.828125q0 -1.21875 0.3125 -2.203125q0.328125 -1.0 0.921875 -1.6875q0.59375 -0.703125 1.4375 -1.078125q0.84375 -0.375 1.890625 -0.375q0.71875 0 1.328125 0.125q0.609375 0.125 1.171875 0.375l0 1.359375q-0.5625 -0.296875 -1.15625 -0.453125q-0.59375 -0.171875 -1.296875 -0.171875q-0.71875 0 -1.296875 0.28125q-0.578125 0.265625 -0.984375 0.78125q-0.40625 0.5 -0.625 1.25q-0.21875 0.734375 -0.21875 1.671875q0 1.984375 0.796875 3.0q0.8125 1.0 2.359375 1.0q0.65625 0 1.25 -0.140625q0.609375 -0.15625 1.171875 -0.4375l0 1.3125zm9.09375 -3.59375q0 0.90625 -0.265625 1.671875q-0.25 0.765625 -0.734375 1.3125q-0.484375 0.53125 -1.1875 0.84375q-0.6875 0.296875 -1.5625 0.296875q-0.84375 0 -1.515625 -0.265625q-0.671875 -0.265625 -1.140625 -0.765625q-0.453125 -0.515625 -0.703125 -1.265625q-0.25 -0.75 -0.25 -1.71875q0 -0.921875 0.25 -1.671875q0.265625 -0.75 0.75 -1.296875q0.484375 -0.546875 1.171875 -0.84375q0.703125 -0.296875 1.59375 -0.296875q0.84375 0 1.5 0.265625q0.671875 0.25 1.140625 0.765625q0.46875 0.5 0.703125 1.25q0.25 0.75 0.25 1.71875zm-1.390625 0.0625q0 -0.734375 -0.15625 -1.265625q-0.15625 -0.546875 -0.453125 -0.90625q-0.296875 -0.375 -0.734375 -0.546875q-0.421875 -0.1875 -0.9375 -0.1875q-0.609375 0 -1.046875 0.234375q-0.4375 0.234375 -0.71875 0.640625q-0.265625 0.390625 -0.40625 0.921875q-0.125 0.53125 -0.125 1.109375q0 0.71875 0.15625 1.265625q0.171875 0.546875 0.46875 0.921875q0.296875 0.359375 0.71875 0.546875q0.421875 0.171875 0.953125 0.171875q0.609375 0 1.03125 -0.234375q0.4375 -0.234375 0.71875 -0.625q0.28125 -0.40625 0.40625 -0.9375q0.125 -0.53125 0.125 -1.109375zm3.359375 -3.921875l1.21875 0l0.046875 1.265625q0.34375 -0.40625 0.65625 -0.671875q0.328125 -0.28125 0.640625 -0.4375q0.3125 -0.171875 0.625 -0.234375q0.328125 -0.0625 0.671875 -0.0625q1.203125 0 1.828125 0.71875q0.625 0.703125 0.625 2.140625l0 5.125l-1.359375 0l0 -5.015625q0 -0.921875 -0.34375 -1.359375q-0.34375 -0.4375 -1.03125 -0.4375q-0.25 0 -0.484375 0.078125q-0.234375 0.0625 -0.5 0.25q-0.25 0.1875 -0.5625 0.5q-0.296875 0.3125 -0.671875 0.78125l0 5.203125l-1.359375 0l0 -7.84375zm15.765625 -1.9375q-1.078125 -0.21875 -1.84375 -0.21875q-1.84375 0 -1.84375 1.921875l0 1.375l3.4375 0l0 1.125l-3.4375 0l0 5.578125l-1.375 0l0 -5.578125l-2.53125 0l0 -1.125l2.53125 0l0 -1.296875q0 -3.140625 3.265625 -3.140625q0.8125 0 1.796875 0.1875l0 1.171875zm-8.21875 1.9375l0 0zm12.71875 -2.078125l-2.3125 0l0 -1.125l3.6875 0l0 9.90625l2.34375 0l0 1.140625l-6.296875 0l0 -1.140625l2.578125 0l0 -8.78125zm12.4375 9.921875l-1.21875 0l-0.046875 -1.265625q-0.359375 0.40625 -0.671875 0.671875q-0.3125 0.265625 -0.625 0.4375q-0.3125 0.171875 -0.640625 0.234375q-0.3125 0.0625 -0.65625 0.0625q-1.21875 0 -1.84375 -0.703125q-0.609375 -0.71875 -0.609375 -2.15625l0 -5.125l1.359375 0l0 5.015625q0 1.796875 1.359375 1.796875q0.25 0 0.484375 -0.0625q0.25 -0.078125 0.5 -0.265625q0.265625 -0.1875 0.5625 -0.5q0.3125 -0.3125 0.6875 -0.78125l0 -5.203125l1.359375 0l0 7.84375zm9.109375 -4.34375q0 0.296875 -0.015625 0.5q0 0.1875 -0.015625 0.359375l-5.5 0q0 1.203125 0.671875 1.84375q0.671875 0.640625 1.9375 0.640625q0.34375 0 0.6875 -0.015625q0.34375 -0.03125 0.65625 -0.078125q0.328125 -0.046875 0.609375 -0.109375q0.296875 -0.0625 0.546875 -0.125l0 1.109375q-0.546875 0.15625 -1.25 0.25q-0.703125 0.109375 -1.453125 0.109375q-1.0 0 -1.734375 -0.265625q-0.71875 -0.28125 -1.1875 -0.796875q-0.46875 -0.53125 -0.6875 -1.28125q-0.21875 -0.75 -0.21875 -1.703125q0 -0.828125 0.234375 -1.5625q0.234375 -0.75 0.6875 -1.296875q0.46875 -0.5625 1.125 -0.890625q0.671875 -0.328125 1.515625 -0.328125q0.8125 0 1.4375 0.265625q0.640625 0.25 1.078125 0.71875q0.4375 0.46875 0.65625 1.15625q0.21875 0.671875 0.21875 1.5zm-1.40625 -0.1875q0.015625 -0.53125 -0.109375 -0.953125q-0.125 -0.4375 -0.390625 -0.75q-0.25 -0.3125 -0.640625 -0.484375q-0.390625 -0.1875 -0.90625 -0.1875q-0.453125 0 -0.828125 0.171875q-0.359375 0.171875 -0.625 0.484375q-0.265625 0.3125 -0.4375 0.75q-0.15625 0.4375 -0.1875 0.96875l4.125 0zm3.578125 -3.3125l1.21875 0l0.046875 1.265625q0.34375 -0.40625 0.65625 -0.671875q0.328125 -0.28125 0.640625 -0.4375q0.3125 -0.171875 0.625 -0.234375q0.328125 -0.0625 0.671875 -0.0625q1.203125 0 1.828125 0.71875q0.625 0.703125 0.625 2.140625l0 5.125l-1.359375 0l0 -5.015625q0 -0.921875 -0.34375 -1.359375q-0.34375 -0.4375 -1.03125 -0.4375q-0.25 0 -0.484375 0.078125q-0.234375 0.0625 -0.5 0.25q-0.25 0.1875 -0.5625 0.5q-0.296875 0.3125 -0.671875 0.78125l0 5.203125l-1.359375 0l0 -7.84375zm15.125 7.734375q-0.46875 0.125 -0.96875 0.171875q-0.484375 0.046875 -0.984375 0.046875q-1.484375 0 -2.21875 -0.671875q-0.71875 -0.671875 -0.71875 -2.046875l0 -4.09375l-2.1875 0l0 -1.140625l2.1875 0l0 -2.15625l1.359375 -0.359375l0 2.515625l3.53125 0l0 1.140625l-3.53125 0l0 3.984375q0 0.84375 0.453125 1.265625q0.453125 0.40625 1.328125 0.40625q0.375 0 0.8125 -0.046875q0.453125 -0.0625 0.9375 -0.1875l0 1.171875z" fill-rule="nonzero"/><path fill="#000000" fill-opacity="0.0" d="m736.18567 442.03348l27.84253 0l0 27.275604l-27.84253 0z" fill-rule="evenodd"/><path fill="#000000" d="m746.54504 452.51315l0 -1.828125l7.53125 0l0 1.828125l-2.625 0l0 8.234375l2.625 0l0 1.84375l-7.53125 0l0 -1.84375l2.625 0l0 -8.234375l-2.625 0z" fill-rule="nonzero"/><path fill="#000000" fill-opacity="0.0" d="m729.997 456.51434l0 0c0 -11.524048 9.342102 -20.86612 20.86615 -20.86612l0 0c5.5340576 0 10.841431 2.1983643 14.754578 6.1115417c3.913147 3.913147 6.1115723 9.220551 6.1115723 14.754578l0 0c0 11.524048 -9.342102 20.86615 -20.86615 20.86615l0 0c-11.524048 0 -20.86615 -9.342102 -20.86615 -20.86615zm5.7073364 0l0 0c0 8.372009 6.786804 15.158844 15.158813 15.158844c8.372009 0 15.158813 -6.7868347 15.158813 -15.158844c0 -8.371979 -6.786804 -15.158813 -15.158813 -15.158813l0 0c-8.372009 0 -15.158813 6.7868347 -15.158813 15.158813z" fill-rule="evenodd"/><path stroke="#000000" stroke-width="1.0" stroke-linejoin="round" stroke-linecap="butt" d="m729.997 456.51434l0 0c0 -11.524048 9.342102 -20.86612 20.86615 -20.86612l0 0c5.5340576 0 10.841431 2.1983643 14.754578 6.1115417c3.913147 3.913147 6.1115723 9.220551 6.1115723 14.754578l0 0c0 11.524048 -9.342102 20.86615 -20.86615 20.86615l0 0c-11.524048 0 -20.86615 -9.342102 -20.86615 -20.86615zm5.7073364 0l0 0c0 8.372009 6.786804 15.158844 15.158813 15.158844c8.372009 0 15.158813 -6.7868347 15.158813 -15.158844c0 -8.371979 -6.786804 -15.158813 -15.158813 -15.158813l0 0c-8.372009 0 -15.158813 6.7868347 -15.158813 15.158813z" fill-rule="evenodd"/><path fill="#000000" fill-opacity="0.0" d="m735.4278 495.73172l27.84253 0l0 27.275604l-27.84253 0z" fill-rule="evenodd"/><path fill="#000000" d="m753.5684 515.8208q-0.78125 0.328125 -1.53125 0.46875q-0.734375 0.15625 -1.546875 0.15625q-1.28125 0 -2.265625 -0.375q-0.984375 -0.375 -1.671875 -1.125q-0.671875 -0.75 -1.03125 -1.84375q-0.34375 -1.1094055 -0.34375 -2.5781555q0 -1.5 0.375 -2.671875q0.390625 -1.171875 1.09375 -1.96875q0.71875 -0.8125 1.734375 -1.234375q1.015625 -0.421875 2.28125 -0.421875q0.40625 0 0.765625 0.015625q0.359375 0.015625 0.703125 0.0625q0.34375 0.046875 0.703125 0.140625q0.359375 0.078125 0.734375 0.203125l0 2.21875q-0.765625 -0.359375 -1.46875 -0.515625q-0.703125 -0.15625 -1.28125 -0.15625q-0.84375 0 -1.453125 0.3125q-0.59375 0.296875 -0.984375 0.859375q-0.375 0.546875 -0.5625 1.3125q-0.1875 0.75 -0.1875 1.65625q0 0.96875 0.1875 1.7344055q0.1875 0.75 0.578125 1.28125q0.390625 0.53125 1.0 0.8125q0.609375 0.28125 1.453125 0.28125q0.296875 0 0.640625 -0.0625q0.359375 -0.0625 0.71875 -0.15625q0.359375 -0.09375 0.703125 -0.21875q0.359375 -0.140625 0.65625 -0.28125l0 2.09375z" fill-rule="nonzero"/><path fill="#000000" fill-opacity="0.0" d="m729.997 509.4547l0 0c0 -11.524048 9.342102 -20.86615 20.86615 -20.86615l0 0c5.5340576 0 10.841431 2.1983948 14.754578 6.1115417c3.913147 3.9131775 6.1115723 9.220551 6.1115723 14.754608l0 0c0 11.524048 -9.342102 20.86615 -20.86615 20.86615l0 0c-11.524048 0 -20.86615 -9.342102 -20.86615 -20.86615zm5.7073364 0l0 0c0 8.372009 6.786804 15.158813 15.158813 15.158813c8.372009 0 15.158813 -6.786804 15.158813 -15.158813c0 -8.372009 -6.786804 -15.158844 -15.158813 -15.158844l0 0c-8.372009 0 -15.158813 6.7868347 -15.158813 15.158844z" fill-rule="evenodd"/><path stroke="#000000" stroke-width="1.0" stroke-linejoin="round" stroke-linecap="butt" d="m729.997 509.4547l0 0c0 -11.524048 9.342102 -20.86615 20.86615 -20.86615l0 0c5.5340576 0 10.841431 2.1983948 14.754578 6.1115417c3.913147 3.9131775 6.1115723 9.220551 6.1115723 14.754608l0 0c0 11.524048 -9.342102 20.86615 -20.86615 20.86615l0 0c-11.524048 0 -20.86615 -9.342102 -20.86615 -20.86615zm5.7073364 0l0 0c0 8.372009 6.786804 15.158813 15.158813 15.158813c8.372009 0 15.158813 -6.786804 15.158813 -15.158813c0 -8.372009 -6.786804 -15.158844 -15.158813 -15.158844l0 0c-8.372009 0 -15.158813 6.7868347 -15.158813 15.158844z" fill-rule="evenodd"/><path fill="#000000" fill-opacity="0.0" d="m735.4278 548.33527l27.84253 0l0 27.275574l-27.84253 0z" fill-rule="evenodd"/><path fill="#000000" d="m746.0997 568.893l0 -11.90625l7.171875 0l0 1.890625l-4.890625 0l0 2.96875l4.671875 0l0 1.84375l-4.671875 0l0 3.3125l4.890625 0l0 1.890625l-7.171875 0z" fill-rule="nonzero"/><path fill="#000000" fill-opacity="0.0" d="m729.997 562.3951l0 0c0 -11.524048 9.342102 -20.86615 20.86615 -20.86615l0 0c5.5340576 0 10.841431 2.1983643 14.754578 6.111511c3.913147 3.913208 6.1115723 9.220581 6.1115723 14.754639l0 0c0 11.524048 -9.342102 20.866089 -20.86615 20.866089l0 0c-11.524048 0 -20.86615 -9.342041 -20.86615 -20.866089zm5.7073364 0l0 0c0 8.371948 6.786804 15.158813 15.158813 15.158813c8.372009 0 15.158813 -6.786865 15.158813 -15.158813c0 -8.372009 -6.786804 -15.1588745 -15.158813 -15.1588745l0 0c-8.372009 0 -15.158813 6.786865 -15.158813 15.1588745z" fill-rule="evenodd"/><path stroke="#000000" stroke-width="1.0" stroke-linejoin="round" stroke-linecap="butt" d="m729.997 562.3951l0 0c0 -11.524048 9.342102 -20.86615 20.86615 -20.86615l0 0c5.5340576 0 10.841431 2.1983643 14.754578 6.111511c3.913147 3.913208 6.1115723 9.220581 6.1115723 14.754639l0 0c0 11.524048 -9.342102 20.866089 -20.86615 20.866089l0 0c-11.524048 0 -20.86615 -9.342041 -20.86615 -20.866089zm5.7073364 0l0 0c0 8.371948 6.786804 15.158813 15.158813 15.158813c8.372009 0 15.158813 -6.786865 15.158813 -15.158813c0 -8.372009 -6.786804 -15.1588745 -15.158813 -15.1588745l0 0c-8.372009 0 -15.158813 6.786865 -15.158813 15.1588745z" fill-rule="evenodd"/><path fill="#000000" fill-opacity="0.0" d="m736.18567 602.0335l27.84253 0l0 27.275574l-27.84253 0z" fill-rule="evenodd"/><path fill="#000000" d="m754.6544 618.21625q0 1.125 -0.3125 2.0q-0.296875 0.859375 -0.875 1.4375q-0.5625 0.5625 -1.390625 0.859375q-0.8125 0.28125 -1.828125 0.28125q-1.15625 0 -1.984375 -0.28125q-0.8125 -0.296875 -1.328125 -0.84375q-0.5 -0.546875 -0.734375 -1.328125q-0.21875 -0.78125 -0.21875 -1.765625l0 -7.890625l2.234375 0l0 7.765625q0 0.59375 0.109375 1.0625q0.109375 0.46875 0.359375 0.796875q0.265625 0.3125 0.65625 0.484375q0.390625 0.15625 0.984375 0.15625q0.546875 0 0.921875 -0.140625q0.390625 -0.140625 0.640625 -0.453125q0.265625 -0.3125 0.390625 -0.796875q0.125 -0.5 0.125 -1.203125l0 -7.671875l2.25 0l0 7.53125z" fill-rule="nonzero"/><path fill="#000000" fill-opacity="0.0" d="m729.997 615.3354l0 0c0 -11.524048 9.342102 -20.86615 20.86615 -20.86615l0 0c5.5340576 0 10.841431 2.1984253 14.754578 6.1115723c3.913147 3.913147 6.1115723 9.22052 6.1115723 14.754578l0 0c0 11.524048 -9.342102 20.86615 -20.86615 20.86615l0 0c-11.524048 0 -20.86615 -9.342102 -20.86615 -20.86615zm5.7073364 0l0 0c0 8.372009 6.786804 15.1588745 15.158813 15.1588745c8.372009 0 15.158813 -6.786865 15.158813 -15.1588745c0 -8.371948 -6.786804 -15.158813 -15.158813 -15.158813l0 0c-8.372009 0 -15.158813 6.786865 -15.158813 15.158813z" fill-rule="evenodd"/><path stroke="#000000" stroke-width="1.0" stroke-linejoin="round" stroke-linecap="butt" d="m729.997 615.3354l0 0c0 -11.524048 9.342102 -20.86615 20.86615 -20.86615l0 0c5.5340576 0 10.841431 2.1984253 14.754578 6.1115723c3.913147 3.913147 6.1115723 9.22052 6.1115723 14.754578l0 0c0 11.524048 -9.342102 20.86615 -20.86615 20.86615l0 0c-11.524048 0 -20.86615 -9.342102 -20.86615 -20.86615zm5.7073364 0l0 0c0 8.372009 6.786804 15.1588745 15.158813 15.1588745c8.372009 0 15.158813 -6.786865 15.158813 -15.1588745c0 -8.371948 -6.786804 -15.158813 -15.158813 -15.158813l0 0c-8.372009 0 -15.158813 6.786865 -15.158813 15.158813z" fill-rule="evenodd"/><path fill="#000000" fill-opacity="0.0" d="m466.33304 637.82294l27.84253 0l0 27.275635l-27.84253 0z" fill-rule="evenodd"/><path fill="#000000" d="m476.77054 657.32074l0 -10.21875l6.15625 0l0 1.625l-4.203125 0l0 2.546875l4.0 0l0 1.578125l-4.0 0l0 2.84375l4.203125 0l0 1.625l-6.15625 0z" fill-rule="nonzero"/><path fill="#000000" fill-opacity="0.0" d="m764.60675 67.54928l27.84253 0l0 27.275589l-27.84253 0z" fill-rule="evenodd"/><path fill="#000000" d="m781.4505 86.64082q-0.671875 0.28125 -1.3125 0.40625q-0.640625 0.140625 -1.328125 0.140625q-1.09375 0 -1.953125 -0.328125q-0.84375 -0.328125 -1.421875 -0.96875q-0.578125 -0.640625 -0.890625 -1.578125q-0.296875 -0.953125 -0.296875 -2.21875q0 -1.28125 0.328125 -2.28125q0.328125 -1.015625 0.9375 -1.703125q0.609375 -0.6875 1.484375 -1.046875q0.875 -0.375 1.953125 -0.375q0.359375 0 0.65625 0.015625q0.3125 0.015625 0.609375 0.0625q0.296875 0.046875 0.59375 0.125q0.3125 0.0625 0.640625 0.171875l0 1.90625q-0.65625 -0.3125 -1.265625 -0.4375q-0.59375 -0.140625 -1.09375 -0.140625q-0.71875 0 -1.234375 0.265625q-0.515625 0.25 -0.859375 0.734375q-0.328125 0.46875 -0.484375 1.125q-0.15625 0.640625 -0.15625 1.421875q0 0.828125 0.15625 1.484375q0.171875 0.65625 0.5 1.109375q0.34375 0.453125 0.859375 0.6875q0.53125 0.234375 1.25 0.234375q0.25 0 0.546875 -0.046875q0.3125 -0.046875 0.609375 -0.125q0.3125 -0.09375 0.609375 -0.203125q0.3125 -0.109375 0.5625 -0.234375l0 1.796875z" fill-rule="nonzero"/><path fill="#000000" fill-opacity="0.0" d="m164.60674 67.54928l27.842514 0l0 27.275589l-27.842514 0z" fill-rule="evenodd"/><path fill="#000000" d="m174.77861 78.40645l0 -1.578125l6.453125 0l0 1.578125l-2.25 0l0 7.046875l2.25 0l0 1.59375l-6.453125 0l0 -1.59375l2.25 0l0 -7.046875l-2.25 0z" fill-rule="nonzero"/><path fill="#000000" fill-opacity="0.0" d="m466.3324 232.13864l27.84253 0l0 27.275574l-27.84253 0z" fill-rule="evenodd"/><path fill="#000000" d="m483.4574 247.8708q0 0.984375 -0.265625 1.71875q-0.265625 0.734375 -0.75 1.234375q-0.484375 0.484375 -1.1875 0.75q-0.703125 0.25 -1.578125 0.25q-0.984375 0 -1.6875 -0.25q-0.703125 -0.265625 -1.140625 -0.734375q-0.4375 -0.46875 -0.640625 -1.140625q-0.1875 -0.671875 -0.1875 -1.5l0 -6.78125l1.921875 0l0 6.65625q0 0.515625 0.078125 0.921875q0.09375 0.390625 0.3125 0.671875q0.234375 0.28125 0.5625 0.421875q0.34375 0.140625 0.84375 0.140625q0.484375 0 0.8125 -0.125q0.328125 -0.125 0.546875 -0.390625q0.21875 -0.265625 0.328125 -0.6875q0.109375 -0.421875 0.109375 -1.03125l0 -6.578125l1.921875 0l0 6.453125z" fill-rule="nonzero"/><path fill="#000000" fill-opacity="0.0" d="m168.06308 81.98823l0 0c0 -5.853348 4.7450714 -10.598419 10.598419 -10.598419l0 0c2.8108826 0 5.5066223 1.1166153 7.494217 3.1042023c1.9875946 1.9875946 3.1042023 4.683342 3.1042023 7.494217l0 0c0 5.853348 -4.7450714 10.598427 -10.598419 10.598427l0 0c-5.853348 0 -10.598419 -4.745079 -10.598419 -10.598427z" fill-rule="evenodd"/><path stroke="#000000" stroke-width="1.0" stroke-linejoin="round" stroke-linecap="butt" d="m168.06308 81.98823l0 0c0 -5.853348 4.7450714 -10.598419 10.598419 -10.598419l0 0c2.8108826 0 5.5066223 1.1166153 7.494217 3.1042023c1.9875946 1.9875946 3.1042023 4.683342 3.1042023 7.494217l0 0c0 5.853348 -4.7450714 10.598427 -10.598419 10.598427l0 0c-5.853348 0 -10.598419 -4.745079 -10.598419 -10.598427z" fill-rule="evenodd"/><path fill="#000000" fill-opacity="0.0" d="m469.7894 651.58826l0 0c0 -5.8533936 4.745056 -10.59845 10.598419 -10.59845l0 0c2.8108826 0 5.5066223 1.1166382 7.494232 3.104187c1.9875793 1.9876099 3.104187 4.6833496 3.104187 7.4942627l0 0c0 5.8533325 -4.7450867 10.598389 -10.598419 10.598389l0 0c-5.853363 0 -10.598419 -4.745056 -10.598419 -10.598389z" fill-rule="evenodd"/><path stroke="#000000" stroke-width="1.0" stroke-linejoin="round" stroke-linecap="butt" d="m469.7894 651.58826l0 0c0 -5.8533936 4.745056 -10.59845 10.598419 -10.59845l0 0c2.8108826 0 5.5066223 1.1166382 7.494232 3.104187c1.9875793 1.9876099 3.104187 4.6833496 3.104187 7.4942627l0 0c0 5.8533325 -4.7450867 10.598389 -10.598419 10.598389l0 0c-5.853363 0 -10.598419 -4.745056 -10.598419 -10.598389z" fill-rule="evenodd"/><path fill="#000000" fill-opacity="0.0" d="m768.06305 81.98823l0 0c0 -5.853348 4.745117 -10.598419 10.59845 -10.598419l0 0c2.810852 0 5.506653 1.1166153 7.4942017 3.1042023c1.9876099 1.9875946 3.104248 4.683342 3.104248 7.494217l0 0c0 5.853348 -4.745117 10.598427 -10.59845 10.598427l0 0c-5.8533325 0 -10.59845 -4.745079 -10.59845 -10.598427z" fill-rule="evenodd"/><path stroke="#000000" stroke-width="1.0" stroke-linejoin="round" stroke-linecap="butt" d="m768.06305 81.98823l0 0c0 -5.853348 4.745117 -10.598419 10.59845 -10.598419l0 0c2.810852 0 5.506653 1.1166153 7.4942017 3.1042023c1.9876099 1.9875946 3.104248 4.683342 3.104248 7.494217l0 0c0 5.853348 -4.745117 10.598427 -10.59845 10.598427l0 0c-5.8533325 0 -10.59845 -4.745079 -10.59845 -10.598427z" fill-rule="evenodd"/><path fill="#000000" fill-opacity="0.0" d="m469.40094 245.77771l0 0c0 -5.853348 4.7450867 -10.598434 10.598419 -10.598434l0 0c2.8108826 0 5.5066223 1.1166229 7.494232 3.1042175c1.9875793 1.9875793 3.104187 4.6833344 3.104187 7.494217l0 0c0 5.853348 -4.745056 10.598419 -10.598419 10.598419l0 0c-5.8533325 0 -10.598419 -4.7450714 -10.598419 -10.598419z" fill-rule="evenodd"/><path stroke="#000000" stroke-width="1.0" stroke-linejoin="round" stroke-linecap="butt" d="m469.40094 245.77771l0 0c0 -5.853348 4.7450867 -10.598434 10.598419 -10.598434l0 0c2.8108826 0 5.5066223 1.1166229 7.494232 3.1042175c1.9875793 1.9875793 3.104187 4.6833344 3.104187 7.494217l0 0c0 5.853348 -4.745056 10.598419 -10.598419 10.598419l0 0c-5.8533325 0 -10.598419 -4.7450714 -10.598419 -10.598419z" fill-rule="evenodd"/></g></svg>